<svg xmlns="http://www.w3.org/2000/svg" fill="none" viewBox="0 0 151 76">
    <path fill="#326EFC"
        d="m95.77 46.95-3-.42-3-.36-6.26-.9-3-.48-3-.42c-1.27-.2-2.51-.25-3.76-.1l-6 .79-6.93.48-6 .04-6.19-.03-3-.1-3-.05-6.06-.15-3-.04-3-.11-6.32-.27-6-.34-2.75.08-1.87.32v.06l-3.8.84-.82.2h-.94l-3.12-.6a7.98 7.98 0 0 1-4.92-7.35 7.78 7.78 0 0 1 6.39-7.67l-.07-.18 3.81-.84 1.93-.45c2.29-.5 4.79-.57 7.19-.42l3 .23 3 .17c1.9.12 3.8.17 5.7.22l3 .1 3 .05 5.93.15 3 .04 3 .1 5.81.04 6-.04 5.06-.34 6-.8c2.74-.34 5.52-.28 8.25.15l6 .96 5.76.78 3 .41 3 .36 3.2-.14 5.98-1.41c2.78-.65 5.61-.9 8.44-.68l6 .46 8.13.08 5.93-.16h.25a8 8 0 0 1 8.05 7.94 7.95 7.95 0 0 1-7.95 8l.06.05-5.93.16-9.82-.12-6-.47c-1.16-.08-2.35.06-3.56.34l-3 .64-3 .7-4.36.66a24.9 24.9 0 0 1-4.44-.16Z" />
    <path fill="#326EFC"
        d="M105.75 75.06a8.02 8.02 0 0 1-3.38-10.81l.07-.06c.4-.75.9-1.42 1.5-2l2-1.44 4.12-2-.06-.06 1.75-.88 7.19-3.19 2.81-1.12 2.81-1.19 5.56-3.19 2.44-1.87 2.25-1.69-.06-.12-.44-3.25-.44-3.31-.56-2.13a5.77 5.77 0 0 0-.94-1.5l-4-4.5-1.62-1.44c-.61-.4-1.3-.73-2.06-1l-2.94-1.06-2.88-1c-4.2-1.47-8.66-4.53-13.12-8.31l-4.44-3.75-1.43-1.63-.07-.12-1.18-2.94a7.9 7.9 0 0 1 13.06-7.38V2l4.44 3.75c4.03 3.42 6.63 4.95 8 5.44l2.93 1 2.88 1c2 .7 3.9 1.66 5.62 2.81l4.75 4.13 4 4.5a21.7 21.7 0 0 1 3.63 5.62l1.81 6.5.44 3.25.44 3.31c.75 5.68-1.1 11.06-5.88 14.75l-2.44 1.88-2.37 1.81-4.5 3.06c-1.57.9-3.2 1.7-4.88 2.38l-5.62 2.25-5.88 2.62-1.75.88-.06.06-4.19 2.06v-.12a7.8 7.8 0 0 1-7.31.12Z" />
</svg>