<svg xmlns="http://www.w3.org/2000/svg" fill="none" viewBox="0 0 305 79">
  <path fill="#FFDD87" d="M94 1h6l1 1h3l2-1 6 1h1v1h4l6-1h35V1h32l5 1h19l3 1h2l7 1h4l4-1h9c3 0 6 1 8 3h7l4 1 4 1 3 2 3 2 2 3v1l3 4v1l1 1v2l1 3v1l-1 3-1 3v1l-2 2-2 3-3 3-3 2-5 2v1l-5 3-4 2 1-1h1l5-1h1l3-1h13l3 1h11l9-1h2a4 4 0 0 1 0 8h-2l-8 1h-13v-1h-17v1l-5 1h-9l-5-1h-3l-4 3h-1l-3 1h-7l-2 1h-1l-6 1h-2l-1 1h-1c-1 2-3 2-5 3h-2v1h-11v1h-1l-5 1h-1l-3 1-3 1-6 1h-10l-4-1-2-1h-2l-2 1-3 1-4 1h-8v1h-7l-2-1h-3l-6 1-2-1h-5l-5 1h-1l-3 1h-7l-4-2H84v-1h-5l-5 1h-1l-4 1-3-1h-9l-3-1h-1l-2-1h-6l-4-1v-1h-4l-5 1-2-1h-1l-4-1h-4l-4-2a40 40 0 0 1-3-2l-1-1v-4l3-2h1l3 1 1 1 2 1h2l4 1h3v1h4v-1h2l6 1h1l2 1h2l3 1h4v1h12l2 1h2v-1l6-1h4l3 1h7l6 1h1l2 1h7l6-2h2l6 1h4l2-1 6 1h3l4-1h6l2-1 3-1 4-1h2l6 1 2 1h8l6-1 5-1h1l5-2h1-3v-1h-5l-6 1h-1l-6-1h-5l-5 1h-1l-3 1-4-1h-4v1l-6 1h-2l-3-1-3-1h-4c-3 1-6 2-8 1h-1v-1h-1l-2 1h-9l-2-1h-8l-6 1-4 1-3-1h-1l-5-1h-9l-3-1h-9l-3-1h-1l-1-1-2 1H41l-3-2h-1l-1-1h-6l-3-1-6-2v-1l-5-2h-1l-3-1-2-2H9l-4-4-1-2-2-3-1-3v-1c-1-3 0-6 2-9l1-2 1-2v-1l1-3 2-3 2-2 5-3 6-2 6-1 5-2h1l6-1 5-1h3l2-1 1-1h32l2 1 2-1h1l5-1h2Zm112 60-3-1h-1v1l-5 1h7l2-1ZM95 9h-1l-6 1h-1l-3 1-3-1H60l-4-1h-3v1l-3 1-4 1-6 1-5 1h-1l-5 1-1 1-4 1h-1l-5 1-1 1h-1l-1 1-1 1-1 2v2l-2 3-1 3v1H9v3l1 2 1 2v1l1 1 1 1 1 1 2 1 2 1h1l5 2 5 2h1l2 1h4l6 2 2 1h15v1h12l2 1h9l6 1h1l2 1 2-1 5-1h11l4 1 1 1 2-1 2-1 7 1h3l2-1h7l3 1 2 1h2l2-1 2-1h7v1h4v-1l6-1h7l5 1h1l5-1h4l3 1h1l3-1h1l5-1h9l2 1h14l5-2h4l3-1 6-3 5-2 5-2v-1l5-2 5-3h1l1-1 2-2 3-4v-2l1-2v-2l-1-1-2-4h-1l-1-2-2-1v-1l-2-1h-2v-1h-11l-2-1v-1l-4-1h-9l-2 1h-8v-1h-8l-4-1h-18l-5-1h-29l-4 1h-33l-5 1h-6l-2-1h-1l-1-1h-2v1h-6l-2-1h-3Z"/>
</svg>