<svg width="24" height="23" viewBox="0 0 24 23" fill="none" xmlns="http://www.w3.org/2000/svg">
<path d="M7.62668 2.50852C9.57891 -0.843251 14.4211 -0.84325 16.3733 2.50852C17.0885 3.73634 18.2868 4.60698 19.6755 4.9077C23.4665 5.72863 24.9628 10.3338 22.3784 13.2262C21.4316 14.2858 20.9739 15.6945 21.117 17.1082C21.5078 20.9673 17.5904 23.8135 14.0409 22.2493C12.7406 21.6764 11.2594 21.6764 9.95914 22.2493C6.40963 23.8135 2.49223 20.9673 2.88296 17.1082C3.02609 15.6945 2.56837 14.2858 1.62164 13.2262C-0.962814 10.3338 0.5335 5.72863 4.32449 4.9077C5.71321 4.60698 6.91154 3.73634 7.62668 2.50852Z" fill="#64C1D8"/>
</svg>
