<svg width="61" height="62" viewBox="0 0 61 62" fill="none" xmlns="http://www.w3.org/2000/svg">
    <path
        d="M31.9685 2.06301C32.7461 0.238626 35.4422 0.683216 35.761 2.68839L37.7211 15.0167C37.9251 16.2998 39.2467 17.1091 40.4296 16.6751L51.7948 12.5059C53.6433 11.8278 55.32 14.0606 54.1533 15.6467L46.9798 25.3982C46.2332 26.4131 46.6417 27.908 47.817 28.4617L59.1095 33.7824C60.9462 34.6477 60.6212 37.3609 58.6524 37.5988L46.5474 39.0611C45.2875 39.2133 44.5437 40.5181 45.0229 41.7352L49.6277 53.4289C50.3767 55.3309 48.2404 56.935 46.6228 55.6853L36.6773 48.0019C35.6422 47.2023 34.1817 47.5527 33.6842 48.7201L28.9038 59.937C28.1263 61.7613 25.4302 61.3168 25.1114 59.3116L23.1512 46.9832C22.9472 45.7001 21.6257 44.8909 20.4428 45.3248L9.07756 49.4941C7.22904 50.1722 5.55236 47.9393 6.71911 46.3533L13.8926 36.6018C14.6392 35.5868 14.2307 34.092 13.0554 33.5383L1.76288 28.2176C-0.0738145 27.3522 0.251159 24.6391 2.22 24.4012L14.325 22.9388C15.5848 22.7866 16.3287 21.4818 15.8494 20.2648L11.2446 8.57102C10.4957 6.66907 12.6319 5.06494 14.2496 6.31462L24.1951 13.998C25.2302 14.7977 26.6907 14.4473 27.1882 13.2798L31.9685 2.06301Z"
        fill="#0707AD" />
</svg>