<svg xmlns="http://www.w3.org/2000/svg" fill="none" viewBox="0 0 151 76">
    <path fill="#326EFC"
        d="m55.23 29.05 3 .42 3 .36 6.26.9 3 .48 3 .42c1.27.2 2.51.25 3.76.1l6-.79 6.93-.48 6-.04 6.18.03 3 .1 3 .05 6.07.15 3 .04 3 .11 6.31.27 6 .34 2.76-.08 1.87-.32v-.06l3.8-.84.82-.2h.94l3.13.6a7.98 7.98 0 0 1 4.91 7.35 7.78 7.78 0 0 1-6.39 7.67l.07.18-3.81.84-1.93.45c-2.29.5-4.79.57-7.19.42l-3-.23-3-.17c-1.9-.12-3.8-.17-5.7-.22l-3-.1-3-.05-5.93-.15-3-.04-3-.1-5.81-.04-6 .04-5.06.34-6 .8c-2.74.34-5.52.28-8.25-.15l-6-.96-5.76-.78-3-.41-3-.36-3.2.14-5.98 1.41c-2.78.65-5.61.9-8.44.68l-6-.46-8.13-.08-5.93.16h-.25a8 8 0 0 1-8.05-7.94 7.95 7.95 0 0 1 7.95-8l-.06-.05 5.93-.16 9.82.12 6 .47c1.16.08 2.35-.06 3.56-.34l3-.64 3-.7 4.36-.66a24.9 24.9 0 0 1 4.44.16Z" />
    <path fill="#326EFC"
        d="M45.25.94a8.02 8.02 0 0 1 3.38 10.81l-.07.06c-.4.75-.9 1.42-1.5 2l-2 1.44-4.12 2 .06.06-1.75.88-7.19 3.18-2.81 1.13-2.81 1.19-5.57 3.18-2.43 1.88-2.25 1.69.06.12.44 3.25.43 3.31.57 2.13c.26.59.57 1.08.93 1.5l4 4.5 1.63 1.44c.61.4 1.3.73 2.06 1l2.94 1.06 2.88 1c4.2 1.47 8.66 4.53 13.12 8.31l4.44 3.75 1.44 1.63.06.12 1.19 2.94a7.9 7.9 0 0 1-13.06 7.38V74l-4.45-3.75c-4.03-3.42-6.63-4.95-8-5.44l-2.93-1-2.88-1c-2-.7-3.9-1.66-5.62-2.81l-4.75-4.13-4-4.5a21.67 21.67 0 0 1-3.63-5.62l-1.81-6.5L.81 36l-.44-3.31C-.38 27 1.48 21.63 6.25 17.94l2.44-1.88 2.37-1.81 4.5-3.06c1.57-.9 3.2-1.7 4.88-2.38l5.62-2.25 5.88-2.62 1.75-.88.06-.06L37.94.94v.12a7.8 7.8 0 0 1 7.31-.12Z" />
</svg>