<svg width="305" height="79" viewBox="0 0 305 79" fill="none" xmlns="http://www.w3.org/2000/svg">
    <path
        d="M94.3125 0.564407C96.3633 0.323686 98.4115 0.630912 100.375 1.47066L100.688 1.62691L100.969 1.75191L102.312 2.06441C102.755 2.09216 103.202 2.04401 103.656 1.90816L103.938 1.81441L104.25 1.72066L106.312 1.31441C108.377 1.07488 110.436 1.38776 112.406 2.25191L112.688 2.37691L113 2.50191L114.656 3.00191C115.189 3.0806 115.705 3.07135 116.219 3.00191L116.531 2.97066L116.812 2.93941L122.531 2.37691L122.812 2.34566L123.125 2.31441L129.094 2.37691L129.719 2.43941L134.469 2.47066L134.781 2.43941L135.062 2.40816L140.844 2.28316H141.438C143.048 2.32361 144.669 2.25091 146.281 2.06441L146.562 2.03316L146.875 2.00191L149.938 1.78316C150.956 1.75798 151.98 1.77874 153 1.84566L153.281 1.87691L153.594 1.90816C155.014 2.00133 156.444 1.88081 157.875 1.56441L158.156 1.50191L158.469 1.43941C160.713 0.943411 162.98 0.825656 165.25 1.12691L165.562 1.18941L165.875 1.22066L170.594 1.43941H170.875L171.188 1.40816L176.812 1.34566H177.406L182.062 0.970657L182.344 0.939407L182.656 0.876907L186.062 0.595657C187.195 0.597868 188.339 0.675164 189.469 0.876907L189.75 0.939407L190.062 1.00191C191.866 1.32395 193.669 1.64151 195.469 1.97066L196.094 2.09566L198.219 2.31441C198.917 2.33883 199.615 2.32872 200.312 2.25191L200.625 2.18941L200.938 2.15816L206.5 1.65816L206.781 1.62691H210.406C211.515 1.71967 212.622 1.89148 213.719 2.15816L214.031 2.25191L214.312 2.31441L216.562 2.72066C217.313 2.81669 218.065 2.86738 218.812 2.87691L219.094 2.90816H219.406C221.521 2.93511 223.617 3.20173 225.688 3.72066L226 3.78316L226.281 3.87691L228.031 4.09566C228.612 4.09782 229.202 4.01729 229.812 3.87691L230.438 3.75191L233.719 3.22066C234.812 3.12289 235.906 3.09885 237 3.15816H237.312L237.625 3.18941L242.875 3.34566H243.188L243.469 3.37691C246.065 3.40072 248.522 4.12944 250.75 5.50191L251.031 5.68941L251.312 5.84566L252.625 6.40816C253.065 6.50306 253.518 6.50195 254 6.43941L254.344 6.40816L254.656 6.34566L258.125 6.18941C259.285 6.23123 260.452 6.38241 261.594 6.62691L261.875 6.68941L262.188 6.75191L265.656 7.90816C266.755 8.42753 267.804 9.07579 268.781 9.84566L269 10.0644L269.25 10.2519L271.75 12.4707C272.511 13.2665 273.182 14.1382 273.812 15.0332L274 15.2519L274.156 15.5019L277.031 20.0644L277.125 20.2832L277.25 20.5019L277.969 22.0332C278.165 22.5642 278.319 23.1076 278.438 23.6582L278.688 27.0644V27.5957C278.633 28.736 278.431 29.8551 278.125 30.9394L276.875 34.0644L276.719 34.3457L276.594 34.5957C276.13 35.4712 275.607 36.3177 275.062 37.1582L273.312 39.6582L273.125 39.8769L272.938 40.1269C272.195 41.085 271.357 41.9359 270.438 42.6894L267.406 44.6582L267.156 44.7832L266.875 44.9394L262.469 47.4082L261.969 47.7207L257.031 50.5332L256.75 50.6894L256.5 50.8144C255.294 51.4409 254.061 52.0304 252.844 52.6269C253.224 52.5786 253.621 52.5322 254 52.4082L254.562 52.2207C256.46 51.5994 258.383 51.068 260.312 50.6582L260.938 50.5332L264.125 50.0644C265.194 49.978 266.268 49.9804 267.344 50.0332H267.656L267.938 50.0644H273.594L276.781 50.1269C277.843 50.2145 278.908 50.3486 279.969 50.5644L280.281 50.6269L280.562 50.6894L285.312 51.2519H285.625L285.938 51.2832C287.459 51.3253 288.979 51.2021 290.5 50.9394L290.812 50.8769L291.094 50.8457L299.594 50.0332L300.188 50.0019H300.375L301.938 50.2519C303.386 50.8084 304.437 52.1984 304.5 53.8457C304.557 55.5 303.599 56.9693 302.188 57.6269L300.625 58.0019L300.031 58.0332L292.469 58.7207L292.156 58.7832L291.875 58.8144C289.827 59.1686 287.754 59.3105 285.688 59.2519H285.094C284.074 59.2229 283.053 59.1525 282.031 59.0332L278.969 58.5332L278.688 58.4707L278.375 58.4082C277.617 58.254 276.867 58.1568 276.125 58.0957L273.906 58.0332L273.625 58.0644H273.312L267.562 58.0332H267.25L266.969 58.0019C266.243 57.9663 265.505 58.0063 264.781 58.0644L262.594 58.3769L262.281 58.4394L262 58.5019C260.352 58.8517 258.695 59.2799 257.062 59.8144L256.781 59.9082L256.469 60.0019C254.005 60.8081 251.468 60.9247 248.938 60.3457L248.625 60.2832L248.344 60.2207L243.156 59.2207L242.875 59.1894L242.562 59.1269C241.63 58.984 240.702 58.9362 239.781 58.9394L235.562 61.5019L235.312 61.6269L235.031 61.7832C233.908 62.3498 232.735 62.7449 231.531 63.0019L227.781 63.3144H227.156C226.347 63.2836 225.555 63.2935 224.781 63.3457L222.5 63.6269L222.188 63.6582L221.906 63.7207L216.344 64.5644L216.062 64.5957L215.75 64.6582C215.248 64.7209 214.738 64.8411 214.219 65.0644L212.656 66.0019L212.406 66.2207L212.125 66.4082C210.574 67.6005 208.882 68.4777 207.062 69.0019L205.219 69.4082L204.906 69.4707L204.625 69.5019C202.609 69.7976 200.551 69.92 198.5 69.8769H197.906C197.21 69.8623 196.521 69.9072 195.844 70.0019L193.812 70.4394L193.531 70.5332L193.219 70.6269L188 72.2519L187.438 72.4394C186.46 72.7451 185.463 72.999 184.469 73.2207L181.469 73.7519L181.188 73.8144L180.875 73.8457L175.469 74.5644L175.156 74.5957L174.875 74.6269L169.125 75.1269H168.531C167.327 75.1774 166.126 75.1153 164.938 74.9082L161.406 73.9082L161.094 73.7832L160.781 73.6894C160.136 73.4425 159.534 73.29 158.969 73.2207H157.344L157.062 73.2832L156.75 73.3144C156.022 73.4281 155.296 73.6098 154.562 73.8144L152.344 74.5644L152.031 74.6894L151.75 74.7832C150.574 75.2583 149.377 75.609 148.156 75.7832L144.469 75.8457L144.156 75.8144L143.875 75.7832C143.318 75.723 142.751 75.7305 142.188 75.8144L140.438 76.2832L139.875 76.5332C137.772 77.4063 135.593 77.5849 133.469 77.1269L131.375 76.4707L130.75 76.2207C130.271 76.0192 129.845 75.9212 129.438 75.9082L128.25 76.0957L127.969 76.2207L127.656 76.3144C125.674 77.0386 123.642 77.2365 121.625 76.9082L119.625 76.4082L119.312 76.3144L119 76.1894C118.4 75.9881 117.817 75.89 117.25 75.8457L115.594 75.9082L115.281 75.9707L115 76.0332L110.031 77.1894L109.719 77.2832L109.438 77.3769C108.374 77.6911 107.298 77.9273 106.219 78.0957L102.969 78.3769H102.656L102.375 78.4082C101.078 78.4324 99.7968 78.2645 98.5625 77.9394L94.9688 76.4707L94.6562 76.3144L94.375 76.1582C93.8239 75.8547 93.3109 75.6571 92.8438 75.5644L91.5 75.5332L91.2188 75.5957L90.9062 75.6269C89.7809 75.7993 88.6558 75.867 87.5312 75.8457L84.1562 75.5019L83.8438 75.4394L83.5625 75.3769C82.8852 75.2466 82.2057 75.1733 81.5312 75.1582L79.5 75.2832L79.2188 75.3457L78.9062 75.3769L73.625 76.2832L73.3125 76.3457L73.0312 76.3769C71.8469 76.6022 70.65 76.7112 69.4688 76.6894L65.9375 76.2519L65.6562 76.1894L65.3438 76.1269C64.6774 75.9728 64.0123 75.8806 63.3438 75.8457L61.3438 75.9082L61.0312 75.9394L60.75 75.9707C59.5364 76.1197 58.3165 76.1318 57.125 76.0019L53.5625 75.1894L53 75.0019C52.3294 74.7663 51.6444 74.5881 50.9688 74.4707L48.9375 74.2832H48.3438C47.1267 74.2782 45.9188 74.1482 44.75 73.8769L41.3438 72.6582L41.0625 72.5332L40.75 72.4082C40.3279 72.2087 39.9127 72.0706 39.4688 72.0332L38.0625 72.1894L37.75 72.2519L37.4375 72.3457C35.541 72.8402 33.6331 72.9608 31.75 72.6894L29.875 72.2832L29.5625 72.1894L29.2812 72.1269L24.75 71.2832L24.4375 71.2519L24.1562 71.2207C22.9737 71.1215 21.8094 70.9006 20.6875 70.5644L17.4062 69.1894L17.1562 69.0644L16.875 68.9082C16.0378 68.4583 15.3245 68.0725 14.8125 67.7519C14.5799 67.6062 14.2681 67.3741 13.9688 67.1269C13.8476 67.0268 13.497 66.7616 13.1875 66.3457C13.0363 66.1418 12.7505 65.6966 12.5625 65.0644C12.4153 64.5651 12.3958 63.8324 12.5938 63.0019C12.6008 62.9629 12.5855 62.9159 12.5938 62.8769C12.6291 62.7095 12.7266 62.5657 12.7812 62.4082C12.8378 62.2726 12.8303 62.1076 12.9062 61.9707V61.9394L13.0625 61.7207C13.6441 60.7116 14.6152 60.0008 15.75 59.7832H17.3125L17.4062 59.8144C18.385 60.0203 19.2089 60.6008 19.7812 61.3769C20.0233 61.5127 20.3116 61.6917 20.6562 61.8769L20.9375 62.0019L21.1875 62.1582L22.9688 62.9082C23.5723 63.0899 24.1877 63.1994 24.8125 63.2519L25.125 63.2832H25.4062L28.5 63.7207C29.5185 63.9107 30.5319 64.1466 31.5312 64.4394L31.8125 64.5332L32.0938 64.5957L33.6562 64.8457C34.2093 64.8496 34.8092 64.7599 35.4375 64.5957L35.75 64.5019L36.0625 64.4394L38.125 64.0644C40.1947 63.8803 42.2433 64.2375 44.1875 65.1582L44.4688 65.3144L44.75 65.4394L46.5625 66.0644C47.1628 66.2038 47.77 66.2807 48.375 66.2832H48.9688L52.3438 66.5957C53.4513 66.7885 54.5474 67.0617 55.625 67.4394L55.9375 67.5644L56.2188 67.6582L58 68.0644C58.5795 68.1268 59.1605 68.105 59.75 68.0332L60.375 67.9707L63.7812 67.8457C64.9112 67.9058 66.039 68.0557 67.1562 68.3144L67.4688 68.4082L67.75 68.4707L69.625 68.6894C70.2496 68.7003 70.8883 68.6555 71.5312 68.5332L71.8438 68.4707L72.125 68.4082L77.75 67.4707L78.0312 67.4394L78.3438 67.3769L81.7188 67.1582C82.8359 67.1837 83.9508 67.3196 85.0625 67.5332L85.375 67.5957L85.6562 67.6582L87.6875 67.8457C88.3531 67.858 89.0182 67.8227 89.6875 67.7207L90 67.6894L90.3125 67.6269L92.375 67.5019C94.4089 67.5505 96.3772 68.1145 98.2188 69.1269L98.5312 69.3144L98.8125 69.4707L100.594 70.1894C101.16 70.3391 101.701 70.4178 102.219 70.4082H102.531L102.812 70.3769L105 70.1894C105.716 70.0771 106.437 69.9326 107.156 69.7207L107.469 69.6269L107.75 69.5332L113.562 68.1582L113.875 68.0957L114.156 68.0332L116.031 67.8144C117.896 67.722 119.747 68.0151 121.562 68.6269L122.188 68.8144L123.562 69.0644C124.008 69.0597 124.452 68.9793 124.906 68.8144L125.219 68.6894L125.5 68.5957L127.594 68.0332C129.702 67.6898 131.834 67.9859 133.875 68.8457L134.156 68.9707L134.469 69.0957L135.688 69.3769C136.062 69.382 136.417 69.3076 136.781 69.1582L137.094 69.0332L137.375 68.9082L141 67.8769C142.222 67.6945 143.465 67.6792 144.719 67.8144L145.031 67.8457L145.312 67.8769L147.031 67.8457C147.599 67.7642 148.169 67.6114 148.75 67.3769L149.062 67.2519L149.344 67.1582L152.406 66.0957C153.435 65.8084 154.484 65.5714 155.531 65.4082L155.812 65.3769L156.125 65.3144L158.031 65.1582C159.928 65.1311 161.823 65.4874 163.656 66.1894L164.281 66.4394L166.312 67.0332C166.962 67.1462 167.588 67.1828 168.188 67.1582L168.5 67.1269H168.812L173.875 66.6894L174.156 66.6582L174.469 66.6269L179.812 65.9082L180.094 65.8769L180.406 65.8457L185.031 64.7832L185.344 64.7207L185.625 64.6269L190.844 62.9707L191.156 62.9082L191.438 62.8144L192.125 62.6269C191.16 62.6433 190.19 62.6598 189.219 62.5019L188.906 62.4394L186.406 62.1894L184.281 62.2519L183.969 62.2832L183.688 62.3144L177.875 62.6582H177.281L171.469 62.4082L171.188 62.3769L170.875 62.3457H166.188L165.875 62.3769L165.594 62.4082C164 62.547 162.399 62.7993 160.812 63.1894L160.5 63.2519L160.219 63.3457C159.007 63.6437 157.783 63.7871 156.562 63.7832L152.906 63.3144L152.594 63.2519L152.281 63.1582C151.799 63.0387 151.324 62.996 150.844 63.0332L149.375 63.4082L149.062 63.5332L148.781 63.6269C146.98 64.3621 145.112 64.7587 143.219 64.7519L141.312 64.6269L141.031 64.5644L140.719 64.5332C139.674 64.3876 138.63 64.1953 137.594 63.9394L134.5 63.0019L134.219 62.9082L133.906 62.7832C133.511 62.6438 133.135 62.5751 132.75 62.5957L131.531 62.9394L131.25 63.0644L130.938 63.2207C128.249 64.4737 125.38 64.6579 122.562 63.6894L122.25 63.5957L121.969 63.4707C121.515 63.3145 121.064 63.2422 120.625 63.2519L119.281 63.5332L119 63.6582L118.688 63.7832C116.705 64.5467 114.658 64.7743 112.625 64.4707L110.594 64.0019L110.312 63.8769L110 63.7832C109.228 63.5285 108.455 63.328 107.688 63.1582L105.406 62.7832L105.094 62.7207L104.812 62.6894C104.147 62.6134 103.476 62.6116 102.812 62.6582L100.844 62.9707L100.562 63.0644L100.25 63.1269L94.4375 64.2832L94.125 64.3457L93.8438 64.3769C92.7096 64.5455 91.5677 64.6217 90.4375 64.5957L87.0625 64.2207L86.75 64.1582L86.4688 64.0957L81.4062 63.3144L81.125 63.2832L80.8125 63.2519L75.8125 62.9082H75.2188C74.1535 62.8906 73.0832 62.7985 72.0312 62.6582L68.9062 62.0644L68.625 62.0019L68.3438 61.9082C67.7131 61.7492 67.0709 61.6622 66.4375 61.6269L64.5 61.7207L64.1875 61.7519L63.9062 61.7832C62.6706 61.9555 61.432 61.9793 60.2188 61.8457L56.625 61.0019L56.3125 60.8769L56.0312 60.7832C55.5268 60.5976 55.0196 60.5012 54.5 60.4707L52.875 60.5957L52.5938 60.6894L52.2812 60.7519C51.1608 61.0127 50.0276 61.1957 48.9062 61.2832H45.5312L45.25 61.2519L44.9375 61.2207C43.7039 61.1194 42.5008 60.8883 41.3438 60.5019L38 58.9394L37.75 58.7519L37.4688 58.5957C36.9545 58.2825 36.447 58.0482 35.9375 57.9082L34.4062 57.7207L34.0938 57.7519H33.7812C32.6305 57.7756 31.4925 57.7076 30.375 57.5332L27.0938 56.6894L26.7812 56.5957L26.5 56.5019L21.3125 54.5644L21.0312 54.4394L20.75 54.3457L15.8438 52.4707L15.2812 52.2832C14.2728 51.9217 13.2783 51.4849 12.3125 51.0019L9.5 49.3769L9.21875 49.2207L8.96875 49.0332C7.31702 47.9576 5.94123 46.6113 4.875 45.0019L3.90625 43.3144L3.78125 43.0019L3.625 42.7207C3.15027 41.7423 2.71981 40.7432 2.34375 39.7207L1.375 36.5644L1.1875 35.9394C0.408457 32.9426 0.932381 29.9927 2.625 27.4082L2.78125 27.1582L2.96875 26.8769L4.0625 24.9082C4.35646 24.2538 4.58314 23.5909 4.75 22.9394L4.8125 22.6582L4.90625 22.3457L6.09375 19.0644C6.608 18.0059 7.24217 16.9915 7.96875 16.0332L8.34375 15.5332L9.65625 14.0332C11.075 12.6561 12.7828 11.6511 14.7188 11.0332L15.3438 10.8457L20.75 9.22066L21.0312 9.12691L21.3125 9.06441L26.7188 7.68941L27.2812 7.56441L32.2812 6.34566L32.5625 6.28316L32.8438 6.18941C34.7158 5.69394 36.6314 5.32179 38.5625 5.06441L38.875 5.03316L39.1562 5.00191C40.8759 4.77324 42.6028 4.51004 44.3125 4.22066L44.625 4.15816L44.9062 4.12691L46.9062 3.59566C47.5743 3.36305 48.2465 3.05402 48.9375 2.68941L49.2188 2.56441L49.5312 2.40816L51.5312 1.56441C53.5656 0.929688 55.7059 0.893994 57.8438 1.50191L58.125 1.59566L58.4375 1.65816L60.625 2.12691C61.3455 2.22735 62.0525 2.29007 62.75 2.28316H63.3438C65.2349 2.26334 67.1399 2.29234 69.0312 2.40816L69.3438 2.43941H69.625L74.25 2.28316L74.875 2.22066L78.0938 2.00191C79.1781 2.00827 80.2615 2.09487 81.3438 2.25191L81.6562 2.28316L81.9375 2.34566L84.0625 2.50191C84.7685 2.50268 85.4769 2.44683 86.1875 2.34566L86.5 2.28316L86.8125 2.25191C88.4098 2.02238 90.0257 1.67482 91.6562 1.18941L91.9688 1.09566L92.25 1.00191L94.3125 0.564407ZM206.156 60.6582L205.875 60.5957C204.738 60.1926 203.713 60.1373 202.719 60.3769L202.438 60.4394L202.125 60.5332L196.969 61.9082L196.75 61.9394C197.187 61.9213 197.622 61.8678 198.062 61.8769H198.688C200.291 61.9101 201.874 61.8241 203.438 61.5957L203.75 61.5332L204.062 61.5019L205.625 61.0332C205.813 60.9509 205.966 60.7939 206.156 60.6894V60.6582ZM94.5625 8.65816L93.9375 8.84566C91.9428 9.4396 89.9412 9.87079 87.9375 10.1582L87.625 10.2207L87.3438 10.2519C86.2521 10.4085 85.1542 10.5027 84.0625 10.5019L80.8125 10.2519L80.5 10.2207L80.1875 10.1582C79.4788 10.0557 78.7703 10.0068 78.0625 10.0019L75.9062 10.1269L75.625 10.1894L75.3125 10.2207C74.2826 10.3569 73.2507 10.4345 72.2188 10.4707L69.1562 10.4394L68.8438 10.4082H68.5625L63.4375 10.2832H62.8438C61.7385 10.2947 60.6322 10.2173 59.5312 10.0644L56.25 9.37691L55.9375 9.28316L55.6562 9.18941C55.2508 9.07412 54.855 9.02334 54.4688 9.06441L53.25 9.47066L52.6875 9.78316C51.6564 10.3273 50.5996 10.7866 49.5312 11.1582L46.25 12.0019L45.9375 12.0644L45.6562 12.0957C43.8498 12.4015 42.0357 12.6666 40.2188 12.9082L39.9375 12.9707L39.625 13.0019C38.0234 13.2152 36.4515 13.5304 34.9062 13.9394L34.625 14.0019L34.3438 14.0957L29 15.3769L28.4375 15.5019L23.5 16.7519L23.2188 16.8457L22.9062 16.9082L17.75 18.4707L17.4688 18.5644L17.1562 18.6582C16.6434 18.8215 16.1835 19.0306 15.7812 19.3144L14.7188 20.3769L14.3438 20.8769C13.9304 21.4221 13.5937 21.9865 13.3125 22.5644L12.6562 24.3457L12.5625 24.6269L12.5 24.9394C12.2144 26.0532 11.8186 27.1337 11.3438 28.1894L9.65625 31.2519L9.5 31.5332L9.3125 31.8144C8.84116 32.5349 8.7338 33.1562 8.9375 33.9394L9.03125 34.2519L9.09375 34.5644L9.84375 36.9394C10.1298 37.7194 10.4535 38.4799 10.8125 39.2207L10.9688 39.5332L11.0938 39.8144L12.0625 41.2519C12.4285 41.6649 12.8611 42.0317 13.3438 42.3457L13.5938 42.5019L13.875 42.6894L15.9062 43.8457C16.5899 44.187 17.272 44.5022 17.9688 44.7519L18.5312 44.9394L23.7188 46.9082L24 47.0019L24.2812 47.1269L29.125 48.9394L29.4375 49.0332L29.7188 49.1269L31.625 49.6269C32.2718 49.727 32.9416 49.7662 33.625 49.7519H33.9375L34.2188 49.7207L36.1875 49.8457C38.1034 50.0851 39.9295 50.7202 41.625 51.7519L41.9062 51.9394L42.1875 52.0957L43.875 52.9082C44.4452 53.0988 45.0207 53.2049 45.5938 53.2519L45.9062 53.2832H46.1875L48.2812 53.3144C48.9916 53.2592 49.7279 53.1431 50.4688 52.9707L50.7812 52.8769L51.0625 52.8144L53.0312 52.5019C54.3325 52.3876 55.6299 52.4519 56.9062 52.7207L59.0938 53.3769L59.375 53.5019L61.0938 53.9082C61.656 53.97 62.2166 53.955 62.7812 53.8769L63.0938 53.8457L63.4062 53.7832L66.8438 53.6269C67.9966 53.6886 69.144 53.8719 70.2812 54.1582L70.5938 54.2519L70.875 54.3144L73.0938 54.7519C73.8375 54.8508 74.5921 54.8958 75.3438 54.9082H75.9375L81.7188 55.2832L82.0312 55.3457L82.3125 55.3769L88 56.2519L88.3125 56.3144L88.5938 56.3769L90.625 56.5957C91.297 56.611 91.9732 56.572 92.6562 56.4707L92.9688 56.4394L98.2812 55.3769L98.5938 55.2832L98.875 55.2207L102.281 54.6582C103.42 54.58 104.572 54.6209 105.719 54.7519L106 54.7832L106.312 54.8144L109.438 55.3457C110.47 55.5748 111.511 55.8523 112.531 56.1894L112.812 56.2832L113.125 56.3769L114.438 56.5957C114.88 56.5832 115.334 56.4989 115.812 56.3144L116.125 56.1894L116.406 56.0644L118.438 55.4707C120.467 55.0654 122.536 55.2099 124.562 55.9082L124.875 56.0332L125.156 56.1269C125.943 56.3979 126.677 56.3837 127.562 55.9707L127.844 55.8144L128.156 55.6894L130.219 54.9394C132.305 54.4051 134.473 54.5011 136.594 55.2519L136.875 55.3457L137.188 55.4707L139.531 56.1582C140.297 56.3467 141.057 56.49 141.812 56.5957L142.125 56.6582L142.438 56.6894H144.062C144.61 56.616 145.17 56.4575 145.75 56.2207L146.062 56.1269L146.344 56.0019L148.281 55.3769C150.228 54.9101 152.222 54.9106 154.219 55.4082L154.531 55.4707L154.812 55.5644L156.594 55.7832C157.168 55.7845 157.745 55.7041 158.312 55.5644L158.594 55.5019L158.906 55.4082C160.88 54.9233 162.872 54.6146 164.875 54.4394L165.5 54.3769L168.531 54.2519C169.552 54.2525 170.574 54.2861 171.594 54.3769L171.906 54.4082L172.188 54.4394L177.25 54.6582H177.844L182.844 54.3769L183.125 54.3457L183.438 54.3144L186.656 54.1894C187.734 54.2218 188.826 54.3261 189.906 54.5019L190.188 54.5644L190.5 54.5957C191.738 54.7971 192.952 54.7249 194.156 54.3769L194.438 54.2832L194.719 54.2207L200.25 52.7519L200.562 52.6894L200.844 52.5957C203.422 51.9742 206.02 52.1459 208.531 53.0332L208.844 53.1582L209.156 53.2519L211.375 53.9082C212.113 54.0681 212.847 54.1669 213.562 54.2207L213.844 54.2519H214.156C215.855 54.3796 217.569 54.443 219.281 54.4394H219.875C220.607 54.4379 221.339 54.4079 222.062 54.3144L224.562 53.8144L224.844 53.7207L230.188 52.3457L230.469 52.2519L230.781 52.1894L233.781 51.5019C234.777 51.3238 235.78 51.1928 236.781 51.0957L237.062 51.0644L237.312 51.0332C238.95 49.9316 240.668 49.0206 242.5 48.3769L243.062 48.1894L247.594 46.3144L247.875 46.1894L253.062 43.5957L253.344 43.4394L257.688 40.9394L257.938 40.7832L258.219 40.6269L263.312 37.7832L263.562 37.6269L263.844 37.5019L265.375 36.5019C265.833 36.1262 266.254 35.6993 266.625 35.2207L266.812 35.0019L267 34.7519L269.531 30.8457L269.781 30.3457L270.438 28.7519C270.58 28.2401 270.663 27.7305 270.688 27.2207V26.9394L270.719 26.6582L270.625 25.3457L270.219 24.3144L270.125 24.0957L270 23.8769L267.625 20.1269L267.469 19.8769L267.281 19.6269C266.888 19.0694 266.462 18.5178 265.969 18.0019L264.312 16.5332L264.062 16.3457L263.812 16.1269C263.304 15.7276 262.768 15.4172 262.219 15.1582L260.5 14.5644L260.219 14.5019L259.906 14.4394C258.559 14.1508 257.151 14.0893 255.688 14.2832L255.375 14.3457L255.062 14.3769C252.942 14.6574 250.885 14.4076 248.969 13.6269L247.094 12.6582L246.844 12.5019L246.562 12.3144C245.489 11.652 244.452 11.3865 243.406 11.3769L243.094 11.3457H242.812L237.188 11.1894L236.875 11.1582H236.562C235.862 11.1204 235.155 11.1256 234.438 11.1894L232.25 11.5332L231.938 11.5957L231.625 11.6894C230.408 11.9704 229.186 12.1027 227.969 12.0957L224.344 11.6269L224.031 11.5644L223.75 11.4707C222.275 11.1008 220.794 10.9276 219.312 10.9082H219L218.719 10.8769C217.667 10.8635 216.607 10.7913 215.562 10.6582L212.438 10.0957L212.125 10.0019L211.844 9.93941C210.456 9.60161 209.066 9.49595 207.688 9.59566L207.375 9.62691H207.062L201.812 10.1269L201.5 10.1582L201.219 10.1894C200.117 10.3119 199.006 10.3545 197.906 10.3144L194.656 9.93941L194.344 9.90816L194.031 9.84566C192.242 9.51835 190.45 9.19715 188.656 8.87691L188.344 8.81441L188.062 8.75191C187.387 8.63122 186.702 8.59603 186.031 8.59566L184.031 8.75191L183.75 8.81441L183.438 8.84566C182.418 9.02504 181.398 9.16947 180.375 9.25191L177.281 9.34566H176.688L171.5 9.40816H171.188L170.906 9.43941C169.888 9.47971 168.862 9.4562 167.844 9.40816L164.812 9.15816L164.5 9.09566L164.188 9.06441C162.855 8.88862 161.524 8.95643 160.188 9.25191L159.906 9.31441L159.594 9.37691C158.516 9.61511 157.431 9.76163 156.344 9.84566L153.062 9.87691L152.781 9.84566H152.469L147.781 9.93941L147.5 10.0019L147.188 10.0332C145.204 10.2624 143.207 10.3334 141.219 10.2832H140.625L135.625 10.4082H135.344L135.031 10.4394C133.048 10.582 131.058 10.5718 129.062 10.4082L128.438 10.3457L123.625 10.3144H123.344L123.031 10.3457L117.906 10.8457L117.594 10.9082L117.312 10.9394C115.371 11.203 113.445 11.0448 111.594 10.5019L109.781 9.84566L109.469 9.72066L109.188 9.56441C108.722 9.36039 108.278 9.24817 107.844 9.22066L106.531 9.40816L106.25 9.47066L105.938 9.56441C103.887 10.1778 101.823 10.2367 99.8125 9.75191L97.8125 9.09566L97.5312 8.97066L97.2188 8.84566C96.7511 8.64585 96.3122 8.52899 95.875 8.50191L94.5625 8.65816Z"
        fill="#FFDD87" />
</svg>