<svg width="88" height="72" fill="none" xmlns="http://www.w3.org/2000/svg">
    <path
        d="M58.518 27.915a3 3 0 0 0-6 0h6Zm-2.242-1.929-2.748-1.202 2.748 1.202ZM52.797 5.112l1.678-2.486-1.678 2.486Zm-12.934-1.98L39.729.134l.134 2.998Zm-7.837 5.011L29.454 6.6l2.572 1.543Zm0 15.19 2.547-1.584-2.547 1.585Zm2.532 2.068-2.198 2.041 2.198-2.041Zm-12.142-6.786L21.8 21.55l.616-2.936Zm-12.762 1.55 1.284 2.711-1.284-2.711Zm-6.149 5.89 2.915.71-2.915-.71Zm.569 7.733 2.342-1.874-2.342 1.874Zm6.561 4.358.921-2.855-.92 2.855Zm14.347 1.395 1.457 2.622-1.457-2.622Zm-2.153-.086-.862-2.874.862 2.873ZM8.414 49.754l2.72 1.265-2.72-1.265ZM6.88 61.707l-2.796 1.087 2.796-1.087Zm10.506 7.06.295-2.985-.295 2.986Zm16.827-9.971-2.386-1.82 2.386 1.82Zm2.376-5.288 2.99.24-2.99-.24Zm.017-1.102 2.996-.171-2.995.171Zm7.424 10.058-1.947 2.283 1.947-2.283Zm9.627 4.134-.402 2.973.402-2.973Zm12.228-4.581 2.464 1.71-2.464-1.71Zm-5.718-17.654-1.218 2.742 1.218-2.742Zm-4.305-.964-.332 2.981.332-2.981Zm19.617-5.426 1.978 2.255-1.978-2.255Zm9.18-12.4-2.909-.737 2.908.737Zm-7.286-6.94 1.005-2.828-1.005 2.827Zm-18.428 2.152 1.72 2.458-1.72-2.458Zm-6.738 5.89a3 3 0 0 0 6 0h-6Zm-5.129 7.267 2.127-2.117-2.127 2.117Zm-10.093.36-2.09-2.152 2.09 2.152Zm-1.722 9.373 1.707-2.467-1.707 2.467Zm10.654-1.803 1.744 2.441-1.744-2.44Zm9.6-13.957h-3c0 .084-.003.482.152.954a3.004 3.004 0 0 0 5.101 1.06c.179-.2.292-.38.334-.45.156-.255.261-.517.282-.566.09-.216.193-.495.277-.727l.257-.712c.093-.257.118-.32.104-.285l-2.749-1.203-2.748-1.202c-.12.273-.38 1.014-.502 1.35-.087.24-.148.4-.179.474-.04.095.017-.059.138-.257a2.9 2.9 0 0 1 .816-.868 2.992 2.992 0 0 1 3.797.287c.495.474.694.989.772 1.224.153.466.148.853.148.921h-3Zm.758-1.929 2.748 1.203c.68-1.552 1.204-3.05 1.54-4.647l-2.935-.619-2.936-.618c-.23 1.093-.602 2.192-1.165 3.479l2.748 1.202Zm1.353-4.063 2.935.619c.295-1.402.434-2.825.434-4.375h-6c0 1.178-.104 2.184-.305 3.138l2.936.619Zm.37-3.756h3c0-5.27-.332-11.362-6.524-15.541l-1.678 2.486L51.119 7.6c3.417 2.306 3.88 5.38 3.88 10.568h3ZM52.796 5.112l1.678-2.486C52.044.984 49.332.35 46.816.12c-2.481-.228-5.02-.077-7.087.014l.134 2.998.133 2.997c2.223-.1 4.29-.216 6.272-.034 1.948.179 3.558.631 4.85 1.504l1.679-2.487Zm-12.934-1.98L39.729.134C35.118.34 31.574 3.067 29.454 6.6l2.572 1.543L34.6 9.687c1.32-2.202 3.216-3.462 5.397-3.558l-.133-2.997Zm-7.837 5.011L29.454 6.6c-1.538 2.562-2.226 5.824-2.268 8.89-.043 3.068.555 6.34 2 8.932l2.621-1.46 2.62-1.46c-.793-1.425-1.274-3.581-1.242-5.928.032-2.348.573-4.486 1.414-5.887l-2.573-1.544Zm-.219 14.82-2.62 1.46c.093.167.19.333.292.496l2.547-1.585 2.547-1.585a5.906 5.906 0 0 1-.145-.247l-2.62 1.46Zm.22.37-2.548 1.586c.357.574.96 1.143 1.262 1.427.416.388.891.799 1.306 1.136.303.246.872.702 1.35.947.086.044.264.132.496.206.083.027.819.287 1.723.043a3.011 3.011 0 0 0 2.226-3.05c-.033-.7-.306-1.2-.354-1.29-.164-.313-.358-.549-.423-.627-.099-.122-.206-.241-.309-.352l-2.198 2.042-2.198 2.041c.056.061.072.081.064.07a2.55 2.55 0 0 1-.244-.379c-.034-.063-.3-.541-.332-1.225a2.985 2.985 0 0 1 2.208-3.023c.893-.24 1.61.017 1.668.036.208.067.355.14.407.167.192.099.132.088-.3-.263-.322-.261-.69-.58-.99-.861-.414-.386-.4-.428-.268-.215l-2.547 1.585Zm2.531 2.068 2.198-2.042a23.208 23.208 0 0 0-3.16-2.805l-1.789 2.408-1.79 2.408a17.24 17.24 0 0 1 2.343 2.072l2.198-2.041Zm-2.75-2.439 1.789-2.408c-3.116-2.316-6.967-4.12-10.565-4.875l-.616 2.936-.616 2.936c2.663.559 5.725 1.966 8.217 3.819l1.79-2.408Zm-9.392-4.347.616-2.936c-5.006-1.05-10.116-.38-14.663 1.775l1.285 2.71 1.284 2.712c3.404-1.612 7.181-2.098 10.862-1.325l.616-2.936Zm-12.762 1.55-1.285-2.711C5.861 18.642 1.673 20.895.59 25.346l2.915.71 2.915.708c.345-1.417 1.887-2.641 4.518-3.888l-1.284-2.711Zm-6.149 5.89L.59 25.346C.282 26.612-.019 28.324 0 30.07c.02 1.675.338 3.851 1.73 5.592l2.344-1.874 2.342-1.874c-.163-.203-.402-.769-.415-1.912-.013-1.071.18-2.253.42-3.238l-2.916-.709Zm.569 7.733L1.73 35.662c.99 1.238 2.36 2.352 3.703 3.23 1.354.884 2.875 1.655 4.28 2.109l.921-2.855.921-2.855c-.785-.254-1.822-.757-2.84-1.422-1.029-.673-1.843-1.384-2.3-1.955l-2.342 1.874Zm6.561 4.358L9.715 41c3.78 1.22 7.424 1.875 11.377 1.987l.085-2.998.085-3c-3.353-.095-6.434-.644-9.706-1.7l-.92 2.856Zm10.542 1.843-.085 3c.41.01.822.017 1.238.017v-6c-.36 0-.716-.005-1.067-.015l-.086 2.998Zm1.153.017v3c.802 0 2.515.043 4.109-.843l-1.457-2.622-1.457-2.623c.014-.008-.033.025-.23.051-.225.03-.496.037-.965.037v3Zm2.652-.465 1.457 2.622c.146-.08.351-.204.564-.372.156-.123.608-.493.916-1.134a3.048 3.048 0 0 0-.342-3.199 3.133 3.133 0 0 0-1.526-1.056c-.516-.164-1-.172-1.16-.174a8.226 8.226 0 0 0-.698.023c-.42.03-.86.083-1.2.132-.218.031-.704.102-1.026.198l.862 2.873.862 2.874c-.174.052-.288.066-.142.04a11.66 11.66 0 0 1 1.198-.14h.05l-.026-.002a2.363 2.363 0 0 1-.541-.107c-.14-.044-.832-.263-1.387-.975a2.951 2.951 0 0 1-.335-3.081c.286-.596.691-.913.771-.977.137-.108.237-.163.246-.168l1.457 2.623Zm-2.153-.086-.862-2.874a42.54 42.54 0 0 0-1.777.576l.987 2.833.988 2.832a36.655 36.655 0 0 1 1.526-.494l-.862-2.873Zm-1.652.535-.987-2.833c-5.296 1.845-11.682 5.28-14.497 11.332l2.72 1.265 2.72 1.265c1.756-3.773 6.15-6.495 11.032-8.197l-.988-2.833ZM8.414 49.754l-2.72-1.265c-.864 1.856-1.708 4.171-2.132 6.599-.42 2.4-.47 5.152.523 7.706l2.796-1.087 2.796-1.088c-.45-1.158-.52-2.694-.205-4.498.31-1.777.955-3.582 1.662-5.102l-2.72-1.265ZM6.88 61.707l-2.796 1.087c2.255 5.799 7.869 8.451 13.006 8.96l.296-2.986.295-2.986c-3.786-.374-6.852-2.196-8.005-5.163L6.88 61.706Zm10.506 7.06-.296 2.986c4.372.433 8.28-1.098 11.503-3.283 3.211-2.176 5.913-5.112 8.005-7.855l-2.385-1.82-2.386-1.819c-1.87 2.453-4.12 4.846-6.6 6.528-2.47 1.673-4.992 2.531-7.546 2.278l-.295 2.986Zm16.827-9.971 2.385 1.82c1.273-1.67 2.754-4.021 2.982-6.868l-2.99-.24-2.991-.239c-.088 1.093-.703 2.306-1.772 3.707l2.386 1.82Zm2.376-5.288 2.99.24c.02-.23.013-.58.011-.691-.002-.2-.007-.457-.01-.63-.004-.322.003-.236-.012-.07a2.948 2.948 0 0 1-.115.595c-.023.076-.147.508-.49.955a2.999 2.999 0 0 1-5.075-.504c-.18-.366-.24-.692-.24-.695-.03-.145-.042-.26-.043-.263l-.005-.053.003.042.008.143 2.995-.17 2.996-.172a13.26 13.26 0 0 0-.036-.473c-.002-.018-.016-.144-.048-.297-.001-.005-.061-.334-.241-.7a2.997 2.997 0 0 0-1.429-1.402 3 3 0 0 0-3.648.896 3.011 3.011 0 0 0-.608 1.566c-.021.238-.012.627-.01.69.002.21.006.418.009.615.003.285-.002.262.008.14l2.99.238Zm.017-1.102-2.995.171c.172 3.001 1.865 5.555 3.482 7.431 1.66 1.927 3.645 3.592 4.99 4.739l1.947-2.283 1.946-2.282c-1.424-1.215-3.035-2.578-4.338-4.09-1.345-1.561-1.98-2.856-2.036-3.857l-2.995.171Zm7.424 10.058-1.947 2.283c3.452 2.944 6.825 4.236 11.172 4.824l.402-2.973.402-2.973c-3.396-.46-5.642-1.361-8.083-3.443l-1.946 2.282Zm9.627 4.134-.402 2.973c2.776.375 5.57.393 8.211-.482 2.718-.9 5.006-2.658 6.883-5.361l-2.464-1.712-2.464-1.71c-1.225 1.764-2.498 2.642-3.842 3.088-1.422.47-3.19.546-5.52.23l-.402 2.974Zm12.228-4.581 2.464 1.71c5.883-8.47 1.289-18.438-6.963-22.105l-1.219 2.741-1.218 2.742c5.607 2.492 7.737 8.498 4.472 13.2l2.464 1.712Zm-5.718-17.654 1.219-2.741c-1.893-.842-3.71-1.04-5.193-1.205l-.331 2.982-.332 2.981c1.537.17 2.481.308 3.419.724l1.218-2.741Zm-4.305-.964.33-2.982c-.185-.02-.241-.032-.222-.028.003 0 .1.019.24.065a2.93 2.93 0 0 1 1.171.753 2.983 2.983 0 0 1-.2 4.297c-.515.45-1.05.588-1.051.588-.21.064-.346.074-.267.064.212-.027.747-.05.963-.05v-6c-.346 0-1.158.027-1.72.098-.115.015-.41.053-.719.147-.052.016-.622.17-1.156.636a3.017 3.017 0 0 0-.204 4.35c.572.603 1.25.798 1.284.81.199.065.377.104.486.126.232.046.487.08.733.107l.332-2.981Zm.964-.293v3c6.6 0 14.523-.517 20.631-5.878l-1.978-2.255-1.98-2.255c-4.283 3.76-10.112 4.388-16.673 4.388v3Zm18.653-5.133 1.978 2.255c3.728-3.27 8.586-7.91 10.11-13.918l-2.909-.737-2.908-.737c-1.013 3.998-4.446 7.544-8.25 10.883l1.978 2.254Zm9.18-12.4 2.907.737c.937-3.696-1.533-6.282-3.38-7.627-1.954-1.422-4.353-2.36-5.808-2.878l-1.005 2.827-1.005 2.827c1.364.485 3.07 1.19 4.287 2.075.6.438.909.797 1.039 1.028.087.155.076.196.056.274l2.908.737Zm-7.286-6.94 1.005-2.828c-6.834-2.43-15.096-1.719-21.154 2.522l1.72 2.458 1.72 2.458c4.29-3.003 10.483-3.64 15.704-1.784l1.005-2.827Zm-18.428 2.152-1.72-2.458c-.608.425-1.203.943-1.75 1.507l2.153 2.09 2.152 2.089c.324-.333.633-.594.885-.77l-1.72-2.458Zm-1.317 1.139-2.153-2.09a13.546 13.546 0 0 0-2.178 2.937c-.58 1.073-1.09 2.432-1.09 3.904h6c0-.123.06-.48.369-1.052a7.566 7.566 0 0 1 1.204-1.61l-2.152-2.09Zm-10.55 12.018 2.127-2.117c-1.753-1.76-4.03-3.106-6.754-3.14-2.734-.035-5.285 1.258-7.556 3.465l2.09 2.152 2.09 2.152c1.534-1.49 2.636-1.779 3.3-1.77.674.008 1.54.332 2.577 1.374l2.126-2.116Zm-10.093.36-2.09-2.152c-1.329 1.29-2.77 3.556-3.481 5.871-.658 2.145-1.078 5.891 2.141 8.12l1.708-2.466 1.707-2.467c-.022-.016-.006-.007.01.02.013.022-.005.003-.02-.093-.035-.229-.017-.68.19-1.353.426-1.388 1.349-2.768 1.925-3.328l-2.09-2.152Zm-1.722 9.373-1.708 2.466c2.688 1.86 5.518 1.986 8.015 1.315 2.36-.635 4.47-1.986 6.09-3.143l-1.743-2.44-1.744-2.442c-1.5 1.072-2.887 1.888-4.161 2.23-1.135.306-2.072.218-3.042-.453l-1.707 2.467Zm10.654-1.803 1.744 2.441c1.052-.752 1.667-1.917 2.014-2.718.4-.922.699-1.971.88-3.002.18-1.023.266-2.157.156-3.236-.1-.975-.41-2.43-1.506-3.532l-2.127 2.117-2.126 2.116c-.356-.358-.26-.58-.21-.092.04.385.017.945-.096 1.588a7.668 7.668 0 0 1-.476 1.655 2.64 2.64 0 0 1-.209.404c-.053.08.003-.032.212-.182l1.744 2.441Z"
        fill="#2465FC" />
</svg>