<!-- <svg width="24" height="23" viewBox="0 0 24 23" fill="none" xmlns="http://www.w3.org/2000/svg">
<path d="M7.62668 2.50852C9.57891 -0.843251 14.4211 -0.84325 16.3733 2.50852C17.0885 3.73634 18.2868 4.60698 19.6755 4.9077C23.4665 5.72863 24.9628 10.3338 22.3784 13.2262C21.4316 14.2858 20.9739 15.6945 21.117 17.1082C21.5078 20.9673 17.5904 23.8135 14.0409 22.2493C12.7406 21.6764 11.2594 21.6764 9.95914 22.2493C6.40963 23.8135 2.49223 20.9673 2.88296 17.1082C3.02609 15.6945 2.56837 14.2858 1.62164 13.2262C-0.962814 10.3338 0.5335 5.72863 4.32449 4.9077C5.71321 4.60698 6.91154 3.73634 7.62668 2.50852Z" fill="#64C1D8"/>
</svg> -->


<svg width="104" height="85" viewBox="0 0 104 85" fill="none" xmlns="http://www.w3.org/2000/svg">
    <path
        d="M52.3878 -0.0078125C53.0337 -0.0219077 53.5862 0.172359 54.005 0.414062L54.0519 0.460938C54.6801 0.292222 55.4225 0.233141 56.1847 0.601562C56.2873 0.651502 56.3523 0.756138 56.4425 0.8125C56.6349 0.79507 56.8387 0.746595 57.0519 0.765625L57.8722 0.953125C58.3236 1.1246 58.6386 1.42128 58.9034 1.67969C59.1367 1.63655 59.3944 1.56748 59.6769 1.58594C59.794 1.59383 59.8945 1.68347 60.005 1.70312C60.5301 1.64435 61.1668 1.68367 61.8331 2.05469C62.0247 2.16177 62.1781 2.30376 62.3253 2.42969C62.8578 2.50106 63.4642 2.65494 63.9894 3.13281C64.5176 3.61464 64.7188 4.18669 64.8331 4.58594C65.4011 4.79237 65.9632 5.14008 66.3566 5.73438L66.38 5.80469C66.782 5.86645 67.2685 6.00366 67.7394 6.34375C68.5181 6.91032 68.8002 7.65275 68.9113 8.28906C69.1237 8.41741 69.3418 8.57447 69.5441 8.78125L70.0831 9.53125L70.4816 10.8672C70.5203 11.2903 70.488 11.6895 70.4113 12.0391C70.3793 12.1828 70.2706 12.3058 70.2238 12.4375C70.2599 12.5392 70.2447 12.655 70.2706 12.7656C70.3115 12.8379 70.328 12.9208 70.3644 13C70.4357 13.0453 70.5268 13.0628 70.5988 13.1172C71.2029 13.5736 71.9846 14.5446 71.8175 15.9531C71.796 16.1314 71.7215 16.2907 71.6769 16.4453C71.8527 16.9119 71.9602 17.4672 71.8409 18.0859C71.8344 18.1196 71.8015 18.147 71.7941 18.1797C71.8513 18.3837 71.8491 18.5768 71.8644 18.7656C72.3846 18.5961 72.9295 18.5846 73.4347 18.6719C73.8187 18.7388 74.1511 18.8642 74.4191 19C74.5936 18.7734 74.7951 18.5025 75.0988 18.2969C75.8909 17.7638 76.7138 17.7821 77.3956 17.9219C77.6107 17.8908 77.8205 17.8861 78.0284 17.8984C78.194 17.8129 78.3639 17.6997 78.5675 17.6406C78.9233 17.5378 79.2621 17.5534 79.5753 17.5703C80.0627 17.3061 80.7041 17.1093 81.4738 17.2188C81.9351 17.2855 82.2945 17.4824 82.5988 17.6641C82.7877 17.5102 82.9731 17.3178 83.2316 17.1953C83.7658 16.9423 84.4522 16.7909 85.2003 16.9375C85.6005 17.0176 85.9532 17.1681 86.2316 17.3359L87.0753 17.6172C87.1009 17.6293 87.1208 17.6514 87.1456 17.6641C87.2175 17.6667 87.2876 17.6806 87.3566 17.6875C88.0489 17.435 88.8679 17.4174 89.63 17.7109C89.9929 17.7619 90.3501 17.826 90.6847 17.9922L91.3878 18.4375L91.9034 19C92.4146 19.1552 92.8037 19.4516 93.1222 19.75C93.2383 19.8041 93.3486 19.851 93.4503 19.9141C93.8418 19.8944 94.276 19.8886 94.7159 20.0547L95.63 20.6172L95.6534 20.6406C95.7821 20.6802 95.923 20.6976 96.0519 20.7578L96.9425 21.4141L96.9659 21.4375C97.514 21.5978 97.8917 21.9026 98.2081 22.2109C98.2294 22.2225 98.2572 22.2221 98.2784 22.2344C98.6545 22.4509 98.9393 22.7244 99.1691 23.0078L99.3566 23.0547L100.083 23.3828C100.756 23.8086 101.284 24.5018 101.466 25.375C101.497 25.5257 101.457 25.6814 101.466 25.8203C101.623 26.156 101.742 26.5009 101.771 26.8516C101.773 26.8805 101.746 26.9169 101.747 26.9453C101.802 26.986 101.88 27.016 101.935 27.0625C102.175 27.2684 102.605 27.6989 102.849 28.3984C102.951 28.6917 102.955 28.9936 102.966 29.2891C103.02 29.3944 103.086 29.498 103.13 29.6172L103.341 30.6016L103.224 31.5625C103.005 32.3772 102.449 32.9269 101.935 33.2969C101.975 33.4925 102.053 33.6959 102.052 33.9297C102.045 34.952 101.555 35.8552 100.81 36.4141C100.56 36.6008 100.292 36.6965 100.06 36.7891C100.033 36.9485 100.071 37.1344 100.013 37.3047C99.7774 37.9951 99.3276 38.4363 98.8878 38.7578C98.6224 39.0415 98.3137 39.2315 97.9972 39.3906C97.9751 39.4155 97.9736 39.4597 97.9503 39.4844C97.8884 39.5496 97.7796 39.5682 97.7159 39.625C97.7146 39.9466 97.646 40.2936 97.5284 40.6797C97.4844 41.1627 97.3238 41.7655 96.9191 42.3438C96.4998 42.9412 95.9334 43.3213 95.3722 43.5391C95.1364 43.8232 94.8397 44.1017 94.4347 44.3125C94.4127 44.3239 94.3863 44.3252 94.3644 44.3359C94.1974 44.9701 93.8459 45.7168 92.9816 46.2344C92.6249 46.4478 92.2575 46.5238 91.9269 46.5859C91.7571 46.7471 91.5985 46.945 91.3644 47.0781C90.9716 47.3013 90.5797 47.3863 90.2394 47.4297C90.098 47.5481 89.9713 47.6691 89.8175 47.7578C89.422 48.5974 88.6551 49.2553 87.6378 49.4453C87.3551 49.8108 87.0038 50.1993 86.4659 50.4297C86.4169 50.4506 86.3504 50.4353 86.3019 50.4531C86.0096 50.7587 85.6516 51.0551 85.1534 51.25C84.7108 51.4222 84.2692 51.4781 83.8644 51.4844C83.4379 51.8741 82.861 52.2299 82.0363 52.2812C81.8893 52.2903 81.7492 52.2444 81.6144 52.2344C81.2671 52.4446 80.877 52.5942 80.4191 52.6562C80.3692 52.6841 80.3316 52.7475 80.2784 52.7734C80.0409 52.8889 79.7981 52.9105 79.5753 52.9609C79.448 53.0423 79.351 53.1978 79.2003 53.2656C78.9552 53.3753 78.7076 53.411 78.4738 53.4531C78.746 53.6392 79.0133 53.8916 79.2472 54.2266C79.736 54.9285 79.7647 55.6322 79.7394 56.125C79.8251 56.3049 79.906 56.4667 79.9503 56.6406C80.267 56.7226 80.6477 56.8326 81.005 57.0859C81.5594 57.4809 82.0478 58.1182 82.2238 58.9609C82.2683 59.1752 82.2461 59.3805 82.2472 59.5703C82.5108 59.7639 82.8041 60.0438 83.0441 60.4141C83.5319 61.1742 83.568 62.0115 83.4191 62.7344C83.4508 62.8191 83.5342 62.8997 83.5597 62.9922C83.726 63.6044 83.6432 64.1501 83.5128 64.6094C83.5789 65.042 83.5868 65.5141 83.4191 66.0156C83.407 66.0516 83.3618 66.0747 83.3488 66.1094C83.3926 66.5855 83.3511 67.1066 83.0909 67.6562C83.0455 67.752 82.9313 67.8058 82.88 67.8906C82.8547 68.1171 82.7588 68.3277 82.6691 68.5703C82.6555 68.8297 82.601 69.1039 82.505 69.3906C82.4727 69.4861 82.3796 69.5616 82.3409 69.6484C82.3449 69.732 82.3908 69.8179 82.3878 69.9062C82.3627 70.635 82.0336 71.1871 81.6847 71.6406C81.6992 72.0501 81.6176 72.5048 81.38 73C81.3267 73.7347 81.094 74.5899 80.2784 75.2266C80.2464 75.2515 80.1936 75.249 80.1613 75.2734C79.9927 75.7845 79.7464 76.3196 79.2472 76.75C78.8432 77.0973 78.4116 77.2906 78.0284 77.4062C77.9578 77.4963 77.8944 77.5857 77.8175 77.6641C77.7265 77.8368 77.6629 78.0346 77.5363 78.2031C76.9001 79.049 76.0227 79.2641 75.3097 79.3281C75.1127 79.7039 74.8099 80.1736 74.255 80.5234C73.4777 81.0131 72.6609 81.0489 72.0753 80.9453L72.0519 80.9219C71.8246 81.0187 71.5971 81.0699 71.3488 81.1094C71.2289 81.2243 71.1318 81.3785 70.9738 81.4844C70.1124 82.058 69.0928 82.106 68.2316 81.7891C67.7665 81.8169 67.3652 81.7544 67.0128 81.625C66.7709 81.6773 66.5238 81.7775 66.2394 81.7656C66.0802 81.7588 65.9381 81.6759 65.7941 81.6484C65.369 81.944 64.8228 82.263 64.1066 82.3281C63.0241 82.4243 62.2353 82.0255 61.6925 81.5547C61.1763 81.5713 60.7216 81.4469 60.3097 81.25C59.7199 81.1674 59.259 80.8928 58.88 80.5938C58.0222 80.7841 56.9921 80.6279 56.1847 79.9141C56.1556 79.8882 56.1418 79.8466 56.1144 79.8203C55.8416 79.7068 55.5994 79.5799 55.3878 79.4219L55.3175 79.4453C55.1051 79.4303 54.8998 79.3813 54.7081 79.3281C54.0181 79.4202 53.0235 79.4061 52.1534 78.5781C51.8647 78.3023 51.6862 77.9921 51.5441 77.7109C51.1267 77.3452 50.8351 76.9153 50.6769 76.4922C50.6399 76.393 50.6548 76.2814 50.63 76.1875C50.4685 76.1855 50.2894 76.2409 50.1144 76.2109C49.5447 76.1121 48.9259 75.8138 48.4034 75.2734C48.3819 75.2623 48.3547 75.2618 48.3331 75.25C47.7279 74.9167 47.374 74.4523 47.1378 74.0078C46.9483 73.9155 46.7392 73.8288 46.5519 73.6797C45.9922 73.2334 45.6746 72.6611 45.5206 72.1562C45.509 72.1176 45.5071 72.077 45.4972 72.0391C45.2694 71.8447 45.0816 71.648 44.9347 71.4297C44.5502 71.1976 44.1705 70.8659 43.88 70.375C43.7997 70.6839 43.6573 70.9935 43.4347 71.3125C43.3317 71.6732 43.1789 72.068 42.8722 72.4375C42.6336 72.7237 42.3595 72.9111 42.0988 73.0703C41.9579 73.5058 41.7183 73.9728 41.2784 74.3828C40.6516 74.9646 39.9491 75.126 39.4738 75.1797C39.3711 75.2935 39.2959 75.4516 39.1691 75.5547C39.1282 75.5877 39.0696 75.595 39.0284 75.625C38.7388 76.1303 38.3507 76.5831 37.7628 76.8672C37.6856 76.9551 37.6165 77.0452 37.5284 77.125C37.4079 77.4659 37.2176 77.8323 36.9191 78.1797C36.6652 78.4751 36.3417 78.6255 36.0519 78.7891C35.8642 79.1198 35.6229 79.4444 35.2316 79.7266C34.7908 80.2995 34.2129 80.768 33.4503 80.9453C33.4069 80.9553 33.3526 80.9371 33.3097 80.9453C33.0688 81.2163 32.7615 81.4741 32.3488 81.6719C31.5204 82.0688 30.7733 81.9633 30.2628 81.8359V81.9062C30.066 82.3504 29.6647 83.0164 28.9034 83.4766C28.078 83.9713 27.2902 83.94 26.6534 83.8047C26.4774 83.9486 26.3082 84.1338 26.0675 84.25C25.3302 84.6046 24.6128 84.5503 23.9816 84.3906C23.5075 84.6248 22.9124 84.8126 22.1769 84.6953C21.744 84.6252 21.3946 84.4508 21.0988 84.2734C21.018 84.2502 20.9444 84.2097 20.8644 84.1797C20.3314 84.4346 19.632 84.6757 18.7784 84.4844C17.9966 84.3068 17.4548 83.8705 17.0909 83.4766C16.7497 83.4078 16.4687 83.2279 16.1769 83.0547C15.7455 83.0537 15.3028 83.0083 14.8644 82.8672C14.2924 82.6815 13.8631 82.3575 13.5519 82.0234C13.4996 82.0152 13.4415 82.0348 13.3878 82.0234C12.5884 81.8531 11.9496 81.3781 11.5363 80.8047C11.3956 80.6078 11.3604 80.3648 11.2784 80.1719C11.1273 80.0661 11.0106 79.9283 10.88 79.7969C10.57 79.7588 10.2196 79.7509 9.87219 79.5859C9.59956 79.4559 9.38888 79.2379 9.16907 79.0469C8.53743 78.8071 7.8274 78.394 7.43469 77.4531C6.78009 77.0241 6.29149 76.3619 6.12219 75.5312C6.03328 75.454 5.90296 75.4142 5.8175 75.3203C5.07215 74.5004 5.03169 73.5834 5.11438 72.8828C4.96349 72.5157 4.87289 72.0933 4.88 71.6406C4.88698 71.2726 4.97262 70.9553 5.0675 70.6797C5.00494 70.5089 4.9149 70.3403 4.88 70.1406C4.84279 69.9229 4.8775 69.7052 4.88 69.5078C4.83715 69.3709 4.74057 69.2419 4.71594 69.0859C4.70004 68.9846 4.72169 68.8791 4.71594 68.7812C4.64088 68.6173 4.53077 68.4581 4.48157 68.2656C4.22847 67.75 4.01945 67.0509 4.22375 66.2031C4.33064 65.7624 4.53134 65.4113 4.73938 65.125C4.6727 64.6217 4.72977 64.1437 4.88 63.7188C4.6604 63.1083 4.50894 62.2677 4.97375 61.3281L5.53625 60.5078C5.61034 60.4292 5.69368 60.3647 5.77063 60.2969C5.97905 59.3248 6.59124 58.7064 7.10657 58.375C7.16462 58.174 7.30589 58.0089 7.41125 57.8125C7.42009 57.7079 7.39022 57.595 7.41125 57.4844C7.5143 56.9443 7.73041 56.4875 8.02063 56.125C8.08045 55.8637 8.17697 55.5924 8.32532 55.3281C8.32962 54.8038 8.45468 54.1691 8.91125 53.5469C9.42926 52.8433 10.0838 52.5362 10.6222 52.3984C10.6575 52.3626 10.7022 52.339 10.7394 52.3047C10.9173 52.0057 11.1023 51.7485 11.3253 51.5547C11.4897 51.0938 11.7863 50.6005 12.2863 50.1953C12.845 49.7431 13.4474 49.5652 13.9034 49.5156H14.0675C14.1289 49.4042 14.1731 49.2762 14.255 49.1641C13.7785 49.1716 13.2477 49.0937 12.7081 48.7891C11.9595 48.3635 11.5799 47.7407 11.3956 47.3359C11.3669 47.3275 11.3304 47.3453 11.3019 47.3359C11.1308 47.39 10.964 47.4989 10.7628 47.5234C10.1043 47.602 9.20832 47.4683 8.4425 46.8438C8.11789 46.5767 7.89853 46.2773 7.73938 46C7.24529 45.9225 6.75835 45.746 6.33313 45.4141C5.8345 45.2319 5.32703 44.9306 4.92688 44.3828C4.57678 43.9033 4.42296 43.4232 4.36438 43.0469C4.316 43.0319 4.24939 43.0411 4.20032 43.0234C3.46944 42.7581 2.74527 42.1697 2.34875 41.2422C2.23192 41.1542 2.06315 41.1225 1.95032 41.0078C1.38732 40.4336 1.14572 39.7855 1.08313 39.2031L1.20032 38.1484L1.22375 38.5234C1.16437 38.2737 1.22919 38.0283 1.22375 37.7969C1.05183 37.3122 0.94788 36.7356 1.10657 36.0625C1.11464 36.0288 1.14447 36.0015 1.15344 35.9688C1.09302 35.5748 1.07564 35.2161 1.15344 34.8672C1.09789 34.7255 0.979502 34.5871 0.942505 34.4219C0.845558 33.982 0.89179 33.5667 0.965942 33.1797C0.931703 33.0994 0.854286 33.0335 0.825317 32.9453C0.49559 31.9373 0.704653 30.8337 1.36438 30.0156C1.49844 29.8498 1.66932 29.7361 1.80969 29.6172C1.85574 29.4225 1.88233 29.2091 1.97375 29.0078L2.55969 28.1172C2.78794 27.8706 3.04112 27.6811 3.28625 27.5312C3.30804 27.4135 3.27202 27.2799 3.30969 27.1562C3.26743 26.8194 3.23671 26.307 3.42688 25.7266C3.59696 25.2079 3.92455 24.7631 4.34094 24.3906C4.41102 24.2465 4.47566 24.0906 4.57532 23.9453C4.79531 23.625 5.05004 23.3423 5.34875 23.125L6.38 22.6094C6.40068 22.5841 6.4285 22.5642 6.45032 22.5391C7.26098 21.607 8.36981 21.4055 9.1925 21.5078C9.34012 21.5262 9.46199 21.6148 9.59094 21.6484C9.90154 21.5095 10.1997 21.4232 10.4816 21.3906C10.8141 21.1409 11.1439 20.9181 11.5128 20.8047C11.601 20.7514 11.6715 20.6642 11.7706 20.6172L11.8409 20.5938C12.0153 20.3051 12.2522 19.9784 12.6144 19.7031C13.6689 18.9025 14.8641 18.9994 15.6378 19.3047H15.6613C15.8604 19.0384 16.0872 18.7381 16.4347 18.5078C16.8768 18.2158 17.4015 18.0024 17.9816 17.8984L18.8019 17.8516C19.2171 17.8878 19.5614 18.0389 19.8566 18.1797C20.0762 18.1276 20.3234 18.0851 20.5831 18.0859C21.0412 18.0887 21.4304 18.2048 21.755 18.3438C22.2295 18.2924 22.7362 18.3364 23.2316 18.5312C23.3288 18.5695 23.4023 18.651 23.4894 18.6953C23.5953 18.689 23.7056 18.668 23.8175 18.6719L24.1456 18.7188C24.4935 18.589 24.9094 18.5048 25.3878 18.5312C25.8464 18.5569 26.2334 18.6766 26.5597 18.8359C26.6569 18.8111 26.7573 18.7817 26.8644 18.7656C27.7101 18.6391 28.5606 18.8738 29.2081 19.375C29.2615 19.4166 29.3006 19.4729 29.3488 19.5156C29.9633 19.2977 30.9432 19.15 31.9503 19.7266C32.0543 19.7862 32.1179 19.8951 32.2081 19.9609C32.1786 19.4033 32.2554 18.8598 32.4894 18.3906C32.5201 18.3294 32.5737 18.2831 32.6066 18.2266C32.5805 18.1251 32.5059 18.0326 32.4894 17.9219C32.3163 16.7589 32.8391 15.916 33.2863 15.4141C33.1256 15.228 32.9304 15.0137 32.7941 14.7344C32.5872 14.309 32.3943 13.6368 32.5363 12.8359C32.6464 12.2178 32.9352 11.739 33.2394 11.3828C33.3265 11.1383 33.4346 10.9113 33.5675 10.7031C33.6408 10.2848 33.8094 9.84579 34.13 9.41406C34.2532 9.24861 34.4175 9.13945 34.5519 9.01562C34.6039 8.91079 34.6723 8.81306 34.7394 8.71094C34.8885 7.9923 35.2209 7.24533 35.9816 6.71875C36.16 6.59618 36.3685 6.53825 36.5441 6.46094C36.595 6.38103 36.6231 6.28261 36.6847 6.20312C36.843 5.68463 37.1175 5.12072 37.7159 4.65625L37.7863 4.60938C38.3949 3.56423 39.4068 3.18247 40.2003 3.10938C40.3319 3.04272 40.4455 2.92741 40.5988 2.875C40.7451 2.82538 40.9049 2.8306 41.0441 2.80469C41.0932 2.77967 41.1326 2.73423 41.1847 2.71094C41.5604 2.54471 41.9338 2.49537 42.2628 2.47656C42.6714 1.96634 43.3052 1.3732 44.3488 1.25781C44.3848 1.2539 44.4305 1.28392 44.4659 1.28125C44.8972 0.946715 45.4754 0.759315 46.1534 0.71875C46.5277 0.571455 46.9716 0.453565 47.4659 0.484375C47.6368 0.495524 47.7837 0.590619 47.9347 0.625C48.3578 0.476654 48.7729 0.425537 49.2003 0.460938C49.351 0.440204 49.5016 0.365207 49.6691 0.367188C50.0504 0.372503 50.3841 0.471617 50.6769 0.578125C50.7249 0.544314 50.7655 0.493215 50.8175 0.460938C51.2092 0.218047 51.7456 0.00647373 52.3878 -0.0078125ZM19.3644 81.4844C19.2936 81.5593 19.2084 81.6198 19.13 81.6953H19.2003C19.2786 81.638 19.3069 81.5358 19.3644 81.4844ZM21.0284 79.5391C20.9476 79.6944 20.9099 79.8237 20.8878 79.8906C20.8651 79.9608 20.8441 80.0171 20.8409 80.0312C20.8532 79.9763 20.9053 79.9003 20.9347 79.7969V79.7734C20.964 79.6726 21.0471 79.5744 21.0988 79.4453C21.069 79.4965 21.0361 79.5243 21.0284 79.5391ZM68.3956 79.9375L68.4425 79.9609L68.2081 79.7266C68.2394 79.7663 68.3031 79.8475 68.3956 79.9375ZM62.5363 79.375C62.4334 79.4906 62.2078 79.6287 61.9503 79.8203C62.2968 79.6023 62.5086 79.4061 62.5363 79.375ZM26.0909 79.4688L26.0675 79.4219C26.0352 79.3628 25.9676 79.2356 25.8566 79.0938C25.8446 79.0787 25.7852 79.0518 25.7394 79C25.8786 79.2136 26.0395 79.3533 26.0909 79.4688ZM59.3019 79.4219H59.3956C59.6345 79.2876 59.7761 79.1538 59.8175 79.1172C59.6935 79.2261 59.4938 79.2935 59.3019 79.4219ZM11.1378 79.1641C11.1635 79.1608 11.1898 79.1904 11.2081 79.1875C11.3642 79.1625 11.4766 79.1298 11.5128 79.1172C11.4338 79.1456 11.2943 79.1238 11.1378 79.1641ZM71.3722 78.8594C71.3906 78.8702 71.4346 78.8661 71.4659 78.8828C71.3854 78.8248 71.288 78.8105 71.2316 78.7656C71.2468 78.7774 71.2954 78.8138 71.3722 78.8594ZM76.0363 78.5781C76.2882 78.5422 76.5776 78.4333 76.88 78.2734C76.5863 78.4069 76.3093 78.5392 76.0363 78.5781ZM15.8722 77.9453C15.8839 77.8848 15.9257 77.7126 15.9191 77.4766C15.9182 77.4488 15.8747 77.4193 15.8722 77.3828C15.8615 77.6171 15.8984 77.8121 15.8722 77.9453ZM71.5597 77.1484C71.594 77.2135 71.6508 77.2582 71.6769 77.3125L71.1144 77.6641H71.1613L71.4191 77.6172L71.6769 77.3125C71.7115 77.3847 71.7731 77.4298 71.7941 77.4766C71.7933 77.4748 71.7787 77.4391 71.7472 77.3828C71.7253 77.3443 71.6448 77.2618 71.5597 77.1484ZM71.6769 77.3125L71.4191 77.6172L71.1613 77.6641H71.1144L71.6769 77.3125ZM48.3566 7C48.306 7.02911 48.247 7.04305 48.1925 7.07031C48.1679 7.10165 48.1721 7.15621 48.1456 7.1875C47.6418 7.78181 46.7098 8.40823 45.4738 8.28906C45.3469 8.27681 45.2374 8.19685 45.1222 8.17188C45.0501 8.199 44.962 8.17337 44.8878 8.19531C44.5144 8.46942 44.0873 8.65103 43.5988 8.73438C43.4561 8.80131 43.3195 8.91975 43.1534 8.96875C42.868 9.39891 42.5416 9.67964 42.1925 9.88281C42.1622 9.92362 42.1554 9.98286 42.1222 10.0234C42.0735 10.0827 41.985 10.1107 41.9347 10.1641C41.9205 10.1907 41.9264 10.2311 41.9113 10.2578C41.5669 10.8619 41.0917 11.2007 40.6456 11.4297C40.5959 11.9341 40.4799 12.503 40.0363 13.0469C39.9788 13.1172 39.885 13.1495 39.8253 13.2109C39.858 13.2836 39.9373 13.3417 39.9659 13.4219C40.1874 14.0454 40.1688 14.8046 39.8488 15.5781C39.8367 15.9901 39.7738 16.4333 39.5441 16.8906C39.5293 16.9199 39.4657 16.9326 39.4503 16.9609C39.6305 17.3126 39.8074 17.7476 39.8253 18.2734C39.8495 19.0142 39.5639 19.5931 39.2863 20.0312C39.3856 20.4393 39.4224 20.8862 39.3331 21.3672C39.3124 21.478 39.2223 21.5703 39.1925 21.6719C39.5883 21.9406 40.0828 22.3531 40.3878 23.0312C40.6759 23.6729 40.6553 24.2986 40.5753 24.8359C41.1132 25.0167 41.6949 25.3356 42.1456 25.9844C42.366 26.3024 42.481 26.6406 42.5675 26.9453C42.5869 26.9835 42.5971 27.0246 42.6144 27.0625C43.1372 27.3731 43.5795 27.7727 43.8331 28.2812C44.1353 28.8885 44.1408 29.454 44.1378 29.7344C44.1345 30.0394 44.1042 30.2947 44.0675 30.4609C43.9939 30.792 43.8724 31.0956 43.7863 31.3047C43.6715 31.5833 43.6065 31.7627 43.5753 31.8438L43.6691 31.5156C43.6759 31.4838 43.6785 31.4021 43.6925 31.3047C43.6245 31.5861 43.5736 31.9458 43.3878 32.2891C43.3719 32.3183 43.323 32.3936 43.2706 32.4766C43.245 32.517 43.199 32.5963 43.13 32.6875C43.0992 32.7282 42.9053 33.0146 42.5675 33.2734C42.422 33.3849 41.9451 33.7157 41.2316 33.8359C40.2733 33.9962 39.1789 33.6944 38.4425 32.8281C38.4139 32.7944 38.3984 32.7447 38.3722 32.7109C37.9921 32.5729 37.5838 32.3535 37.2238 31.9844C37.2001 31.9601 37.1993 31.9151 37.1769 31.8906C36.8369 31.5709 36.5474 31.1916 36.38 30.7656C36.3311 30.6398 36.3165 30.5097 36.2863 30.3906C36.256 30.3666 36.2447 30.3215 36.2159 30.2969C35.6982 30.3148 35.0676 30.2467 34.4347 29.8516C33.6257 29.3448 33.3042 28.6144 33.1456 28.0938L31.9972 27.7188C31.6483 27.5235 31.3549 27.2503 31.1066 26.9453C31.066 26.8954 31.0488 26.8312 31.0128 26.7812C30.8316 26.6557 30.6784 26.5247 30.5441 26.3828C30.161 26.3449 29.819 26.2492 29.5128 26.1016C29.4116 26.1049 29.314 26.1094 29.2081 26.1016C28.9835 26.129 28.7443 26.2017 28.4816 26.1719C28.4573 26.1691 28.4352 26.1517 28.4113 26.1484C28.2828 26.1778 28.1568 26.2522 28.0128 26.2656C27.4557 26.3169 26.9432 26.1836 26.4894 25.9844C26.09 26.0319 25.6365 26.0139 25.1534 25.8672C24.6436 25.7108 24.2546 25.4368 23.9347 25.1641H23.8878C23.5813 25.2881 23.2224 25.3877 22.8097 25.3984C22.4215 25.4079 22.0812 25.3336 21.7784 25.2344C21.4344 25.4727 21.0003 25.7279 20.4191 25.7969C19.9044 25.8559 19.4426 25.7661 19.0597 25.6328C18.6717 25.8819 18.2191 26.1353 17.6066 26.1719C17.177 26.1962 16.7888 26.1143 16.4581 26.0078C16.2412 26.0034 16.038 26.0482 15.8488 26.0078C15.4494 26.3739 14.9197 26.7124 14.1847 26.8047L14.1378 26.7812C13.9012 27.1043 13.6014 27.4702 13.13 27.7188C12.3968 28.1041 11.6729 28.1125 11.1613 28.0234C10.8087 28.1758 10.4785 28.2608 10.1534 28.2812C10.0257 28.3574 9.92603 28.5016 9.77844 28.5625C9.68113 28.6025 9.56834 28.5809 9.47375 28.6094C9.42802 28.7749 9.39234 28.9511 9.30969 29.125C9.29862 29.4001 9.32037 29.703 9.21594 30.0156C9.11509 30.3155 8.94862 30.5629 8.79407 30.7891C8.72156 30.971 8.65443 31.1678 8.53625 31.3516C8.48175 31.4362 8.38386 31.4874 8.32532 31.5625C8.29233 31.9937 8.20615 32.436 7.97375 32.8516C7.83043 33.1071 7.6255 33.2864 7.45813 33.4609C7.79868 33.994 8.05823 34.7487 7.85657 35.7109C7.8227 35.8696 7.72081 35.9956 7.66907 36.1328C7.66109 36.3295 7.66364 36.5138 7.62219 36.6953C7.70626 36.7759 7.82314 36.8321 7.90344 36.9297C8.01377 37.0639 8.05591 37.2332 8.13782 37.375C8.22124 37.4219 8.31227 37.4581 8.39563 37.5156L9.38 38.2422C9.67142 38.5737 9.87929 38.9536 10.0128 39.3438V39.4141C10.5344 39.4364 11.1557 39.5742 11.7472 40.0234C12.0916 40.2856 12.3203 40.6006 12.4972 40.8906C12.6645 40.9195 12.8348 40.9679 13.0128 41.0312C13.149 41.08 13.269 41.1577 13.3878 41.2188C13.6763 41.2531 13.9568 41.315 14.2316 41.4297C14.4262 41.4526 14.6342 41.4552 14.8409 41.5234C15.5362 41.7545 16 42.2008 16.2941 42.5781C16.7534 42.6458 17.2326 42.7883 17.6769 43.1172C17.8438 43.2419 17.9518 43.4277 18.0753 43.5625C18.3307 43.4819 18.6209 43.4506 18.9425 43.4453C19.2844 43.1754 19.9016 42.7793 20.7706 42.7422C21.3501 42.7187 21.8572 42.8664 22.2706 43.0703C22.5907 43.1143 22.8874 43.199 23.1613 43.3281C23.2735 43.3106 23.3911 43.2631 23.5128 43.2578C24.1305 43.2325 24.6439 43.3935 25.0597 43.6094C25.1076 43.6084 25.1534 43.6081 25.2003 43.6094C25.4492 43.4272 25.7506 43.2762 26.0909 43.1641C26.1437 43.1468 26.2028 43.1314 26.255 43.1172C26.6137 42.8385 27.1312 42.5937 27.755 42.5078C28.4274 42.4176 29.0206 42.5603 29.4659 42.7656C29.5079 42.785 29.5433 42.8154 29.5831 42.8359C29.8591 42.7822 30.229 42.7725 30.6378 42.8359C31.2079 42.9264 32.0229 43.2445 32.6066 44.0547C33.146 44.807 33.1919 45.5754 33.1691 45.9766C33.1291 46.6534 32.8595 47.1414 32.8175 47.2188C32.7899 47.2704 32.7494 47.3169 32.7238 47.3594C32.7228 47.4335 32.7534 47.5159 32.7472 47.5938C32.7317 47.7865 32.6615 48.3797 32.2784 49C32.0595 49.3538 31.6952 49.7744 31.13 50.0781C30.5456 50.3908 29.9373 50.4766 29.4191 50.4297C29.1807 50.4078 28.9786 50.3033 28.7863 50.2422C28.7033 50.2511 28.6159 50.3097 28.5284 50.3125C28.3638 50.3174 28.212 50.235 28.0597 50.2188C27.6712 50.4566 27.2367 50.6648 26.7238 50.7109C26.3843 50.7412 26.08 50.6961 25.8097 50.6406C25.7333 50.6679 25.6563 50.736 25.5753 50.7578C25.4664 50.7867 25.352 50.7651 25.2472 50.7812C25.1049 50.8683 24.9744 50.9937 24.8019 51.0625C24.6216 51.1342 24.4328 51.1449 24.2628 51.1797C23.9307 51.3714 23.6084 51.4999 23.2784 51.5547C23.0266 52.0389 22.6323 52.6134 21.8722 52.9609C21.4963 53.132 21.124 53.1731 20.7941 53.1953C20.5941 53.5042 20.3185 53.8213 19.9269 54.0859C19.6687 54.2588 19.3811 54.3308 19.13 54.4141C18.7114 54.9149 18.1652 55.1785 17.5831 55.3516C17.3568 55.9605 16.9686 56.6471 16.1066 57.0625C15.8623 57.179 15.6011 57.2032 15.38 57.25C15.3464 57.6699 15.2528 58.1574 14.9581 58.6328C14.7384 58.9852 14.4564 59.2483 14.1847 59.4531V59.4766C13.9487 59.8479 13.6316 60.0897 13.3409 60.2969C13.2795 60.419 13.1831 60.5124 13.1066 60.625C13.1236 61.2212 13.0245 61.8637 12.5675 62.5C12.4974 62.8301 12.4107 63.1148 12.2628 63.3672L12.1222 64.7969C12.0987 64.8661 12.0332 64.9174 12.005 64.9844C11.9475 65.3131 11.8298 65.6319 11.6534 65.9453C11.7419 66.5637 11.6027 67.0898 11.3956 67.5625C11.4273 67.7197 11.5301 67.8774 11.5363 68.0547C11.5438 68.2854 11.4323 68.4857 11.3956 68.6875C11.6142 69.0842 11.8007 69.5568 11.7941 70.1641C11.7892 70.5945 11.6645 70.9492 11.5363 71.2656C11.608 71.3436 11.7263 71.3852 11.7941 71.4766C12.1542 71.9626 12.2796 72.4843 12.3331 72.9531C12.3701 73.0485 12.444 73.1293 12.4738 73.2344C12.6131 73.3595 12.7257 73.5137 12.8488 73.6797C13.0474 73.7202 13.2676 73.7271 13.4816 73.8203C13.9155 74.0103 14.2493 74.2818 14.5128 74.5703C14.5786 74.6131 14.6585 74.6376 14.7238 74.6875C14.979 74.8832 15.1259 75.1478 15.2863 75.3672C15.3529 75.4161 15.4085 75.4749 15.4738 75.5312C15.6705 75.5716 15.8747 75.6037 16.0831 75.6953C16.1505 75.7047 16.2244 75.6808 16.2941 75.6953C16.7972 75.8011 17.2079 76.025 17.5363 76.2812C17.8492 76.2855 18.151 76.3226 18.4503 76.4219C18.7012 76.4051 18.9817 76.4114 19.2706 76.4688C19.6572 76.5462 19.98 76.701 20.255 76.8672C20.5871 76.7959 20.9659 76.7822 21.38 76.8438C22.0482 76.9453 22.5594 77.246 22.9269 77.5469C23.0047 77.5403 23.0804 77.524 23.1613 77.5234C23.1843 77.5024 23.2074 77.4739 23.2316 77.4531C23.6212 77.1199 24.1685 76.8139 24.8488 76.7266C25.309 76.6682 25.7188 76.7459 26.0675 76.8438C26.2267 76.7032 26.4212 76.6387 26.5831 76.5391C26.9419 75.9811 27.5119 75.3782 28.4347 75.1562C28.754 75.08 29.0567 75.1188 29.3253 75.1328C29.4904 75.0104 29.6533 74.8567 29.8644 74.7578C30.0124 74.6888 30.1664 74.6601 30.3097 74.6172C30.3804 74.4324 30.4436 74.2248 30.5675 74.0312C31.0536 73.2727 31.7845 72.9106 32.4659 72.7422C32.6762 72.517 32.9385 72.3889 33.1691 72.25C33.2959 71.7665 33.5513 71.2246 34.0831 70.75C34.1935 70.6517 34.3222 70.5916 34.4347 70.5156C34.6684 70.1481 34.9595 69.8819 35.255 69.6719C35.5156 69.4017 35.824 69.1605 36.1925 68.9922C36.4325 68.883 36.6794 68.8479 36.8956 68.8047C36.9687 68.6952 37.0389 68.5805 37.13 68.4766C37.1635 68.3729 37.1755 68.2547 37.2238 68.1484C37.2394 67.3799 37.4654 66.3695 38.4659 65.6641C38.5452 65.6084 38.6445 65.5924 38.7238 65.5469C38.8244 65.3351 38.9428 65.1513 39.0753 64.9844C39.1391 64.8276 39.2402 64.6898 39.3331 64.5391C39.3331 63.9804 39.41 63.3654 39.8019 62.7812L39.7784 62.7344C39.3711 61.2287 40.1875 60.1489 40.6222 59.7344C41.0253 59.3526 41.4516 59.1679 41.6066 59.1016L41.6534 59.0781C42.0678 58.7777 42.411 58.6287 42.4738 58.6094C42.8819 58.4786 43.251 58.4708 43.3175 58.4688L43.8566 58.4922L44.255 58.5156C44.3466 58.5304 44.7353 58.6064 45.1691 58.8203C45.2464 58.8586 45.3316 58.9832 45.4738 59.0781C45.5174 59.1029 45.5705 59.1206 45.6144 59.1484C45.8764 59.3149 46.3706 59.6866 46.7159 60.3438C46.8239 60.5509 46.8461 60.7811 46.9034 61C47.261 61.5902 47.5786 62.3933 47.2784 63.4141C47.2556 63.4917 47.1884 63.5519 47.1613 63.625C47.2073 63.721 47.2665 63.8077 47.3019 63.9062C47.6531 64.2567 47.8496 64.6275 47.9816 65.0078C48.1858 65.0944 48.4262 65.1794 48.6378 65.3359C49.0066 65.611 49.259 65.9622 49.4581 66.3203C49.5809 66.3369 49.7183 66.3307 49.8566 66.3672L50.9347 66.9062L51.5909 67.5391C51.8505 67.8944 51.9512 68.2841 52.0363 68.6172C52.4063 69.0003 52.6386 69.3963 52.7628 69.7891C52.798 69.799 52.8444 69.8011 52.88 69.8125C53.6132 70.0494 54.2545 70.5467 54.6378 71.2422C54.6647 71.291 54.6614 71.358 54.6847 71.4062C54.8781 71.5818 55.0579 71.7459 55.2003 71.9453C55.3506 72.0397 55.501 72.1177 55.6222 72.2266C55.6804 72.2532 55.751 72.2654 55.8097 72.2969C55.8347 72.3103 55.8558 72.3299 55.88 72.3438C56.0778 72.3613 56.2949 72.324 56.5128 72.3906C56.8171 72.484 57.0834 72.616 57.3097 72.7656C57.8451 72.8938 58.2563 73.1931 58.6222 73.5156C58.8926 73.4625 59.2147 73.4549 59.5597 73.4922C60.004 73.5415 60.4032 73.687 60.755 73.8906C61.159 74.0451 61.4804 74.263 61.7394 74.5C61.9031 74.5229 62.0811 74.5388 62.255 74.5938C62.4014 74.6402 62.5038 74.7672 62.63 74.8281C62.6623 74.8321 62.691 74.8464 62.7238 74.8516L63.5441 74.9453C63.6173 74.9639 63.6856 74.9926 63.755 75.0156C63.9667 74.9044 64.2017 74.7772 64.4816 74.7109C65.1983 74.5428 65.8466 74.6808 66.4034 74.9219C66.5774 74.9643 66.746 74.9987 66.8956 75.0625C66.9416 75.0539 66.9887 75.0457 67.0363 75.0391C67.4941 74.9766 67.9259 75.0495 68.3019 75.1562C68.4635 75.0791 68.6235 74.9736 68.8175 74.9219L68.8644 74.8984C68.9266 74.8319 68.9796 74.752 69.0519 74.6875C69.4707 74.3138 70.0337 74.0279 70.6925 73.9375H70.7159C70.9653 73.7317 71.2374 73.5278 71.5831 73.3984C71.6367 73.3784 71.6945 73.3681 71.7472 73.3516C71.8408 73.2717 71.9183 73.1664 72.0284 73.0938C72.2084 72.9755 72.414 72.9308 72.5909 72.8594C72.692 72.6449 72.7898 72.3942 72.9659 72.1797L74.0441 71.3359C74.2096 71.2593 74.3834 71.2383 74.5363 71.1953C74.582 70.8289 74.7419 70.4453 74.9816 70.0469C75.083 69.6301 75.2468 69.2478 75.5206 68.8984C75.5182 68.5263 75.5704 68.1134 75.755 67.6797C75.8502 67.4578 75.9837 67.265 76.1066 67.0938C76.067 66.7563 76.0599 66.4343 76.13 66.1094C76.1038 65.9182 76.0465 65.7175 76.0597 65.5C76.0799 65.1675 76.1507 64.8691 76.2472 64.6094C76.0036 64.0843 75.885 63.4306 76.0597 62.6641V62.6406C76.046 62.6166 76.0261 62.5951 76.0128 62.5703C75.7842 62.1453 75.6904 61.7294 75.6613 61.3516C75.5406 61.1962 75.4435 61.0301 75.3566 60.8594C75.0361 60.6835 74.7477 60.4157 74.4659 60.0625C74.0961 59.8446 73.7124 59.5515 73.4113 59.0781C73.2631 58.8439 73.1567 58.6002 73.0831 58.375C72.8307 58.0758 72.6371 57.7647 72.5206 57.4375C72.2814 57.3513 72.0587 57.2077 71.8175 57.0391C71.4267 56.9204 71.0104 56.7425 70.6222 56.4062C70.3282 56.1516 70.1721 55.835 70.0128 55.5625C69.9053 55.5262 69.7948 55.4969 69.6847 55.4453C69.1405 55.5519 68.5083 55.6059 67.8097 55.3047C67.6644 55.2416 67.5605 55.0992 67.4347 55.0234C66.8779 54.9648 66.4314 54.7974 66.0753 54.5547L66.0284 54.6016C64.9664 54.8328 63.9191 54.4662 63.2159 53.7578C62.6855 53.2214 62.4828 52.6433 62.4191 52.4219C62.339 52.1428 62.3155 51.8929 62.3019 51.7422C62.2942 51.6573 62.2601 51.2661 62.3488 50.8047C62.3844 50.6209 62.5215 49.9149 63.1222 49.2812C63.2756 49.1194 63.4504 48.9495 63.6613 48.8125H63.6847L64.2238 48.2031C64.4932 47.9717 64.8592 47.7416 65.3253 47.5938C65.6984 47.4767 66.0677 47.4609 66.4034 47.4766C66.6128 47.3843 66.8406 47.2647 67.1066 47.2188C67.9476 47.0753 68.5975 47.3042 69.0988 47.5938C69.1381 47.5949 69.177 47.5912 69.2159 47.5938C69.3169 47.5623 69.4105 47.4991 69.5206 47.4766C70.2318 47.334 70.8598 47.478 71.3722 47.6875C71.4404 47.6567 71.5121 47.6433 71.5831 47.6172C71.8688 47.3764 72.2175 47.1196 72.6847 46.9844C73.2054 46.6835 73.8833 46.4561 74.7003 46.5859C74.9647 46.6284 75.1697 46.7789 75.38 46.8672C75.5371 46.7612 75.695 46.6228 75.8956 46.5391C76.6807 46.2133 77.4343 46.2954 78.0284 46.4922C78.2643 46.3889 78.5184 46.3002 78.8019 46.2578H79.4347C79.5899 46.1506 79.7566 46.0374 79.9503 45.9531C80.2927 45.8044 80.6354 45.7419 80.9581 45.7188C81.1552 45.6358 81.3549 45.6171 81.5441 45.5781L82.3878 45.3203C82.4274 45.28 82.4646 45.2403 82.505 45.2031C82.5276 45.1528 82.5256 45.0901 82.5519 45.0391C82.9011 44.3615 83.5638 43.7247 84.4972 43.4688C84.7515 43.1474 85.0999 42.8864 85.5284 42.6719C85.605 42.473 85.682 42.262 85.8097 42.0625C86.3771 41.1759 87.1866 40.8724 87.8488 40.75C87.9356 40.6948 88.0088 40.6126 88.1066 40.5625C88.3588 40.4333 88.6044 40.3561 88.8331 40.3047C88.9555 40.104 89.0876 39.8835 89.2784 39.6953C89.7118 39.2693 90.2055 39.0397 90.6378 38.9219C90.6976 38.8834 90.7657 38.8611 90.8253 38.8281C90.8885 38.7612 90.9406 38.6812 91.0128 38.6172C91.0746 38.5628 91.1609 38.5238 91.2238 38.4766C91.1966 38.1707 91.1945 37.813 91.2941 37.4219C91.4037 36.993 91.6213 36.5626 91.9503 36.1797C91.9652 36.1488 91.981 36.117 91.9972 36.0859C92.2636 35.5767 92.6043 35.1924 92.9816 34.9375C93.1618 34.6701 93.39 34.3999 93.7081 34.1641C93.74 34.1405 93.77 34.1155 93.8019 34.0938C93.8432 33.9967 93.8645 33.8871 93.9191 33.7891C94.0335 33.584 94.2007 33.4313 94.3409 33.2734C94.4541 32.7138 94.6946 32.1372 95.2081 31.6562C95.2976 31.5725 95.3986 31.5126 95.4894 31.4453C95.5498 31.3204 95.6695 31.2342 95.7472 31.1172L95.8409 30.9297C95.8805 30.7062 95.9757 30.4844 96.0753 30.25C95.7905 29.9518 95.5106 29.5735 95.3488 29.1016C95.3144 29 95.3013 28.8958 95.2784 28.7969C94.9713 28.6178 94.6556 28.3919 94.3878 28.0469C94.3418 27.9876 94.3106 27.919 94.2706 27.8594C93.9315 27.7909 93.5616 27.6805 93.2159 27.4609C92.669 27.1115 92.3627 26.6349 92.1613 26.2422L92.0909 26.2188C91.959 26.1895 91.8061 26.1987 91.6691 26.1484C91.2736 26.0022 90.9486 25.7951 90.6847 25.5625L90.6613 25.5391C90.0665 25.6701 89.3072 25.6908 88.505 25.2344C87.9719 24.9289 87.6283 24.5252 87.4034 24.1562C87.2099 24.2444 87.0098 24.3641 86.7706 24.4141C86.0115 24.5721 85.3997 24.3937 84.8956 24.1562C84.8337 24.1493 84.7693 24.1669 84.7081 24.1562C84.5749 24.2182 84.4389 24.2743 84.2863 24.3203C84.0183 24.4723 83.7206 24.6426 83.3488 24.7188C82.6344 24.8642 82.008 24.7089 81.4738 24.4844C80.9652 24.6992 80.4773 24.7591 80.0206 24.7188C79.5081 24.8984 78.9569 24.9842 78.38 24.8594C78.2611 24.8333 78.1577 24.7549 78.0519 24.7188C77.7872 24.8686 77.5458 25.0521 77.255 25.1172C77.1234 25.2229 77.0198 25.3771 76.8566 25.4688C76.7302 25.5397 76.6076 25.6338 76.4816 25.7031C75.4048 26.2921 74.4078 26.0384 73.7863 25.7969C73.7054 25.918 73.6614 26.0749 73.5519 26.1953C73.391 26.372 73.1751 26.4652 72.9894 26.5938C72.7491 27.0218 72.4168 27.4993 71.8409 27.8359C71.3983 28.0944 70.9591 28.1743 70.5753 28.2109C70.6132 28.6375 70.5883 29.1237 70.3878 29.6406C70.1663 30.2077 69.8149 30.614 69.4738 30.9062C69.5421 31.4559 69.504 32.0659 69.1456 32.7109C69.1682 33.1665 69.1387 33.6893 68.8644 34.2344C68.2557 35.4375 67.1389 35.772 66.8488 35.8516C66.6786 35.8978 66.4986 35.8541 66.3331 35.875C66.0137 35.9837 65.6821 36.0689 65.3253 36.0625C63.9314 36.0355 62.801 35.0606 62.4894 33.7656C61.9259 33.2485 61.5126 32.5155 61.4816 31.6328C61.4675 31.1918 61.5429 30.8042 61.6456 30.5078C61.6552 30.4064 61.6557 30.3042 61.6691 30.2031L62.0675 28.9844C62.0958 28.935 62.131 28.8904 62.1613 28.8438C62.1639 28.813 62.1576 28.7812 62.1613 28.75C62.2151 28.2952 62.3746 27.9219 62.5597 27.6016C62.7405 26.7965 63.2128 26.2494 63.7316 25.8672C63.8282 25.7338 63.882 25.5753 63.9894 25.4688C64.0575 25.1357 64.166 24.7599 64.4113 24.3906C64.4369 24.3524 64.4785 24.3096 64.505 24.2734C64.5212 24.1613 64.4983 24.0397 64.5284 23.9219C64.561 23.7946 64.6251 23.6838 64.6691 23.5703C64.6447 23.4185 64.5523 23.2713 64.5519 23.1016C64.5518 22.4573 64.7365 21.9277 64.9738 21.5312C64.9451 21.4104 64.8968 21.2859 64.88 21.1562C64.8719 21.0933 64.8842 21.03 64.88 20.9688C64.721 20.6277 64.5691 20.2531 64.5519 19.8203C64.4289 19.6087 64.254 19.3972 64.1769 19.1172C63.9374 18.2446 64.1254 17.522 64.3878 16.9844C64.3556 16.9437 64.3018 16.911 64.2706 16.8672C63.6159 15.945 63.564 14.8597 63.8722 14.0078C63.9146 13.8913 64.0092 13.8047 64.0597 13.7031C64.0098 13.594 63.956 13.489 63.9191 13.375C63.6375 13.2009 63.3318 12.9804 63.0753 12.6484C62.7079 12.1715 62.5577 11.6539 62.4894 11.1953C62.3295 11.0464 62.2048 10.885 62.0909 10.7266C61.8055 10.6573 61.5217 10.515 61.2238 10.3281C61.0237 10.2631 60.7985 10.2388 60.5909 10.1172C60.1227 9.84163 59.79 9.50621 59.5597 9.15625C59.1362 9.0117 58.8021 8.79056 58.5284 8.54688C58.2886 8.56636 58.0331 8.64156 57.755 8.59375C57.698 8.58388 57.6456 8.55935 57.5909 8.54688C57.4707 8.55924 57.3459 8.6188 57.2159 8.61719C56.2773 8.60432 55.645 8.14104 55.2003 7.72656C54.6152 7.65989 54.16 7.46963 53.7941 7.21094C53.5887 7.25484 53.3844 7.23216 53.1847 7.23438C52.7718 7.47292 52.2443 7.69981 51.5675 7.67969C51.2687 7.67006 50.9972 7.58776 50.7472 7.51562C50.0614 7.63787 49.3884 7.61465 48.8019 7.30469C48.6376 7.21766 48.5077 7.09825 48.38 7H48.3566ZM15.2159 77.3125C15.2013 77.3911 15.2076 77.4626 15.1925 77.5234C15.2054 77.4599 15.2301 77.3845 15.2394 77.2891L15.2159 77.3125ZM61.13 77.5C61.1303 77.4943 61.1344 77.4234 61.13 77.3359L61.1066 77.2891C61.1051 77.3602 61.1333 77.4389 61.13 77.5ZM15.2159 77.2188L15.2394 77.1953C15.243 77.1361 15.2871 77.0751 15.2863 77.0078C15.2858 76.9755 15.2654 76.9339 15.2628 76.8906C15.2554 77.0129 15.2321 77.1169 15.2159 77.2188ZM9.70813 76.9844C9.73619 76.9817 9.76035 76.9867 9.77844 76.9844C9.84828 76.9751 9.90436 76.9643 9.91907 76.9609C9.86517 76.9738 9.79085 76.9681 9.70813 76.9844ZM59.2316 76.8203C59.2122 76.85 59.1975 76.8922 59.1847 76.9141C59.2238 76.8383 59.2969 76.7702 59.3488 76.6797C59.2987 76.7438 59.2531 76.7876 59.2316 76.8203ZM12.7081 75.8125C12.6295 76.0996 12.5588 76.3281 12.4738 76.4922L12.4972 76.4688C12.5554 76.3346 12.6642 76.163 12.7081 75.9297C12.7144 75.8962 12.7025 75.8531 12.7081 75.8125ZM9.21594 76.2109L9.26282 76.2344C9.30729 76.2335 9.34617 76.2135 9.38 76.2109C9.3317 76.221 9.27313 76.2002 9.21594 76.2109ZM73.0597 76L73.2238 76.1406L73.3409 76.0703L73.4816 75.8828L73.0597 76ZM73.3409 76.0703L73.2238 76.1406L73.0597 76L73.4816 75.8828L73.3409 76.0703ZM54.7784 73.9141L53.63 74.1719C53.6557 74.1442 53.6967 74.13 53.7238 74.1016L53.7003 74.125C53.6689 74.153 53.6429 74.1825 53.63 74.1953L53.6066 74.2188L53.63 74.1719L54.7784 73.9141C54.7617 73.9623 54.7669 74.0232 54.755 74.0547C54.7569 74.0496 54.7684 74.0176 54.7784 73.9844C54.789 73.949 54.8093 73.8805 54.8253 73.7969C54.8304 73.7698 54.8177 73.7155 54.8253 73.6562C54.7986 73.7545 54.8023 73.8453 54.7784 73.9141ZM34.4581 74.0312C34.4977 74.1407 34.5371 74.2144 34.5519 74.2422C34.5084 74.1671 34.4775 74.0456 34.4113 73.9141C34.4308 73.9789 34.4543 74.0205 34.4581 74.0312ZM74.9816 74.0547L74.9347 74.0312C74.9182 74.0198 74.8948 74.003 74.8644 73.9844L74.9816 74.0547ZM36.4269 73C36.4442 73.0442 36.4607 73.0896 36.4738 73.1172H36.4972C36.4614 73.0542 36.4457 72.9678 36.4034 72.8828C36.4196 72.9325 36.4175 72.9759 36.4269 73ZM7.62219 72.8125C7.66829 72.8297 7.71094 72.8505 7.73938 72.8594C7.76553 72.8675 7.78859 72.8771 7.80969 72.8828L7.90344 72.9062L7.80969 72.8594C7.75047 72.8467 7.68875 72.8289 7.62219 72.8125ZM9.52063 72.5312V72.5547C9.60911 72.5329 9.71159 72.5261 9.82532 72.5078C9.7879 72.5089 9.75013 72.5067 9.73157 72.5078C9.65312 72.5127 9.58176 72.522 9.52063 72.5312ZM36.8956 72.3672L36.9659 72.4609C36.9191 72.3849 36.8812 72.2847 36.8253 72.1797C36.8575 72.2631 36.8769 72.3296 36.8956 72.3672ZM6.42688 71.3594L6.82532 71.5703L6.30969 71.2422C6.36307 71.2834 6.39253 71.3363 6.42688 71.3594ZM37.505 71.4297C37.4753 71.4159 37.4353 71.4013 37.3878 71.3828C37.3199 71.3566 37.1678 71.3055 36.9659 71.2656C37.1847 71.3486 37.3861 71.3683 37.505 71.4297ZM8.60657 71.1016H8.63C8.68349 71.0898 8.74788 71.0904 8.8175 71.0781C8.71976 71.0832 8.63966 71.0966 8.60657 71.1016ZM10.4816 70.375C10.5153 70.43 10.5447 70.4823 10.5753 70.5391L10.5988 70.5156C10.575 70.4638 10.5312 70.4243 10.505 70.375H10.4816ZM46.9972 70.1641V70.2109C47.0454 70.0545 47.0698 69.9025 47.1144 69.7891C47.0941 69.8407 47.0356 69.9802 46.9972 70.1641ZM38.8644 69.5781L39.0284 69.8594L38.8409 69.5078C38.8528 69.5337 38.8553 69.5596 38.8644 69.5781ZM36.7316 69.0859C36.5453 69.1067 36.2749 69.1668 35.9816 69.2969C36.2511 69.197 36.5068 69.111 36.7316 69.0859ZM39.1691 68.9688C39.2147 69.0465 39.2624 69.1003 39.2863 69.1328C39.301 69.1525 39.3266 69.1718 39.3331 69.1797C39.2753 69.1127 39.2195 69.0198 39.1456 68.9219L39.1691 68.9688ZM6.33313 69.0156L6.30969 69.0625C6.45644 68.9487 6.54822 68.816 6.63782 68.7578C6.61639 68.7717 6.48971 68.8563 6.33313 69.0156ZM79.3409 68.3828V68.2656L79.2706 68.4531L79.3409 68.3828ZM4.57532 68.3828C4.6165 68.4838 4.69366 68.5585 4.73938 68.6406V68.6172C4.68858 68.5411 4.62453 68.4725 4.57532 68.3828ZM79.3409 68.3828L79.2706 68.4531L79.3409 68.2656V68.3828ZM4.43469 66.9297C4.35604 67.3521 4.40503 67.7203 4.48157 68.0312C4.42181 67.6944 4.36031 67.329 4.43469 66.9297ZM6.82532 66.4141C6.9326 66.5297 7.03356 66.6138 7.10657 66.6719V66.6484C7.00868 66.5741 6.91103 66.4496 6.77844 66.3203C6.80234 66.3481 6.80672 66.3939 6.82532 66.4141ZM80.3722 64.7266L80.5597 64.3984L80.5128 64.2812L80.3722 64.7266ZM78.3097 65.1016C78.2906 65.1125 78.2615 65.1114 78.2394 65.125C78.4724 65.0148 78.6803 64.9316 78.8253 64.8906C78.7589 64.9094 78.5486 64.9648 78.3097 65.1016ZM80.5597 64.3984L80.3722 64.7266L80.5128 64.2812L80.5597 64.3984ZM81.1456 64.6797C81.1236 64.6583 81.1166 64.6258 81.0988 64.6094L80.6534 64.2812C80.8228 64.378 80.9613 64.5514 81.1456 64.6797ZM79.0831 62.4766L79.13 62.5C79.2233 62.4987 79.2886 62.4804 79.3175 62.4766C79.2524 62.4886 79.1693 62.4632 79.0831 62.4766ZM80.7706 63.1562C80.7933 63.1374 80.8508 63.1009 80.9113 63.0391C80.9347 63.015 80.9454 62.9637 80.9816 62.9219C80.8976 62.9997 80.8432 63.0965 80.7706 63.1562ZM7.66907 62.2188C7.72613 62.2965 7.77102 62.3434 7.78625 62.3594C7.73244 62.3035 7.68682 62.2243 7.62219 62.1484C7.63757 62.1714 7.65739 62.2026 7.66907 62.2188ZM45.5909 62.0547C45.5722 62.0265 45.561 61.9845 45.5441 61.9609C45.3541 61.6981 45.1636 61.5432 45.0988 61.4922C45.2091 61.5791 45.374 61.7957 45.5909 62.0547ZM43.9269 61.8672C44.0066 61.8599 44.136 61.8902 44.3019 61.8906C44.2299 61.8804 44.175 61.8696 44.1378 61.8672C44.0115 61.8595 43.9293 61.867 43.9269 61.8672ZM7.27063 60.4844L7.57532 61.1172L7.22375 60.2969C7.24016 60.3624 7.25145 60.4258 7.27063 60.4844ZM8.255 61.0469L8.20813 61.0703C8.3969 61.023 8.55436 60.9689 8.67688 60.9531C8.59225 60.9653 8.43471 60.988 8.255 61.0469ZM44.1847 59.6406C44.2428 59.6576 44.303 59.6871 44.3722 59.7109L44.3488 59.6875C44.2884 59.6614 44.2342 59.6346 44.1847 59.6172L43.9738 59.5703L44.1847 59.6406ZM12.4034 58.6328C12.39 58.6091 12.391 58.5807 12.38 58.5625C12.2559 58.3587 12.1299 58.2198 12.0988 58.1875C12.1881 58.2802 12.2721 58.4616 12.4034 58.6328ZM12.9894 55.3516L12.6613 55.1406L12.1925 55.5625L12.3097 56.0312L12.9894 55.3516ZM74.4191 56.0781C74.3826 56.1419 74.2992 56.2871 74.2316 56.4766C74.2263 56.4913 74.2182 56.5152 74.2081 56.5469C74.3427 56.2908 74.4143 56.0666 74.4894 55.9609C74.4762 55.9799 74.452 56.0211 74.4191 56.0781ZM78.005 55.75L78.0284 55.7734C78.0341 55.7515 78.0214 55.7119 78.0284 55.6797C78.0183 55.7034 78.0148 55.728 78.005 55.75ZM12.9894 55.3516L12.3097 56.0312L12.1925 55.5625L12.6613 55.1406L12.9894 55.3516ZM71.8878 55.5391C71.9122 55.543 71.9341 55.5593 71.9581 55.5625C72.0199 55.5457 72.07 55.5103 72.1222 55.4922V55.4688C72.051 55.497 71.973 55.5123 71.8878 55.5391ZM62.9347 53.1484C62.9541 53.1753 62.987 53.2147 63.0284 53.2656C62.9637 53.1736 62.9033 53.0985 62.8644 53.0312C62.8826 53.0598 62.9031 53.1045 62.9347 53.1484ZM64.9503 51.4609L64.9738 51.4844C64.981 51.5024 65.0061 51.5223 65.0206 51.5547C65.0076 51.5139 64.9857 51.4769 64.9738 51.4375L64.9503 51.4609ZM67.1769 50.7109L66.8956 50.7812L66.9191 50.9453L67.1769 50.7109ZM82.88 50.7109C82.9047 50.6718 82.9544 50.6515 82.9738 50.6172C83.1504 50.3043 83.1876 50.0317 83.2081 49.9375C83.2163 49.9438 83.2804 50.002 83.3722 50.0547C83.43 50.0876 83.5393 50.1187 83.6769 50.1719V50.1484C83.4727 50.0302 83.2765 49.9905 83.2081 49.9375C83.1666 50.1288 83.0245 50.3874 82.88 50.7109ZM67.1769 50.7109L66.9191 50.9453L66.8956 50.7812L67.1769 50.7109ZM79.1534 50.8516C79.1659 50.8659 79.1994 50.873 79.2238 50.8984L79.1769 50.8516H79.1534ZM19.4816 50.3125C19.5035 50.332 19.5539 50.3481 19.5988 50.3828C19.5436 50.3289 19.4809 50.2902 19.4347 50.2422L19.4816 50.3125ZM65.9816 49.6562C65.9364 49.7322 65.9018 49.7888 65.8878 49.8203C65.8608 49.8441 65.8398 49.8694 65.8175 49.8906C65.9687 49.7361 66.192 49.5935 66.4503 49.4219C66.2028 49.5505 66.0213 49.7024 65.8878 49.8203C65.9355 49.705 66.0893 49.5853 66.1925 49.3984C66.099 49.5132 66.0153 49.5999 65.9816 49.6562ZM74.1144 48.7422C74.0646 48.856 74.009 48.938 73.9972 48.9766C73.9775 49.0421 73.9784 49.0932 73.9738 49.1172C73.9854 49.0402 74.0692 48.9179 74.1144 48.7422ZM70.2238 48.3906C70.1663 48.4094 70.1137 48.4394 70.0597 48.4609C70.1134 48.4359 70.168 48.4135 70.2238 48.3906ZM83.7003 46.9609C83.7589 47.0296 83.8181 47.0883 83.8644 47.1484L83.8409 47.2656L83.9347 47.2188C83.9278 47.2098 83.9134 47.1777 83.8878 47.1484L83.7003 46.9609ZM31.7159 47.0781C31.7034 47.187 31.6067 47.3167 31.5753 47.4766L31.6222 47.4531C31.6076 47.4825 31.5728 47.5078 31.5519 47.5469L31.5753 47.5703C31.675 47.278 31.7159 47.0785 31.7159 47.0781ZM81.4503 47.1953C81.5514 47.2943 81.6578 47.3469 81.7081 47.4062L81.6847 47.3594C81.6488 47.3245 81.5742 47.2673 81.4738 47.1953L81.4503 47.1719V47.1953ZM83.9347 47.2188L83.8409 47.2656L83.8644 47.1484C83.8855 47.1759 83.9162 47.1938 83.9347 47.2188ZM13.1066 46.6094C13.1366 46.7001 13.2194 46.8674 13.3409 47.0781H13.3878C13.2842 46.8653 13.1651 46.7155 13.13 46.6094H13.1066ZM13.9738 46.9609C13.9971 46.9507 14.0293 46.9683 14.0441 46.9609C14.0902 46.938 14.1144 46.9141 14.1144 46.9141C14.0813 46.9365 14.0171 46.9339 13.9738 46.9609ZM13.2706 46.4922C13.2392 46.515 13.2104 46.5395 13.1769 46.5625H13.2238C13.2587 46.5452 13.2857 46.5097 13.3175 46.4922H13.2706ZM27.38 46.3281C27.3949 46.3727 27.4379 46.4051 27.4503 46.4453C27.4424 46.4244 27.4373 46.4 27.4269 46.375L27.4034 46.3281H27.38ZM18.0519 45.625C18.0506 45.6049 18.042 45.5426 18.0284 45.4609C18.0201 45.4118 17.9867 45.3293 17.9581 45.2266C17.9851 45.3962 18.046 45.5342 18.0519 45.625ZM11.8878 45.7891C11.9318 45.7621 11.9797 45.7596 12.005 45.7422C12.1153 45.6663 12.1901 45.6016 12.2159 45.5781C12.1518 45.6365 12.021 45.6879 11.8878 45.7891ZM90.5441 45.5078L90.5675 45.4609C90.5792 45.3331 90.5482 45.2107 90.5441 45.1094C90.5581 45.2278 90.544 45.3573 90.5441 45.5078ZM20.8644 44.8516C20.8425 44.8833 20.8524 44.9263 20.8409 44.9453C20.8572 44.9174 20.8681 44.8835 20.8878 44.8516H20.8644ZM89.3488 44.1484L89.6769 43.9609L89.4425 44.0078L89.3488 44.1484ZM89.3488 44.1484L89.4425 44.0078L89.6769 43.9609L89.3488 44.1484ZM15.0988 44.0078C15.0934 43.9268 15.091 43.7949 15.0519 43.6328C15.0462 43.6097 15.0374 43.5708 15.0284 43.5391C15.0587 43.7276 15.0947 43.8849 15.0988 44.0078ZM5.91125 43.5859L6.61438 43.8906L5.84094 43.4922C5.8601 43.5255 5.89021 43.5525 5.91125 43.5859ZM12.8019 43.5625C12.7908 43.6115 12.812 43.6628 12.8019 43.7031C12.8083 43.6571 12.8214 43.6033 12.8253 43.5391L12.8019 43.5625ZM10.2003 43.3047C10.2072 43.283 10.2391 43.2642 10.2472 43.2344V43.1875C10.2324 43.2274 10.2153 43.2658 10.2003 43.3047ZM89.4425 42.6953C89.4574 42.7545 89.4782 42.8008 89.4894 42.8359L89.5831 43.0469L89.4659 42.6953H89.4425ZM88.6222 42.8594C88.6713 42.8897 88.7238 42.9033 88.7628 42.9297H88.7863C88.7637 42.9176 88.743 42.896 88.7159 42.8828C88.7058 42.8779 88.6732 42.8582 88.6222 42.8359V42.8594ZM8.98157 41.9219C8.80715 42.0222 8.67873 42.1154 8.63 42.1562C8.72996 42.0723 8.88954 41.9863 9.05188 41.875C9.02533 41.8892 9.00096 41.9108 8.98157 41.9219ZM89.3956 42.3672C89.4112 42.4966 89.4209 42.6092 89.4425 42.6953H89.4659C89.4317 42.5994 89.4264 42.4865 89.3956 42.3672ZM90.5675 42.4141L90.5441 42.5547L90.6847 42.3672L90.5675 42.4141ZM90.5441 42.5547L90.5675 42.4141L90.6847 42.3672L90.5441 42.5547ZM89.2081 42.4141C89.1434 42.3857 89.043 42.3335 88.9034 42.2969C88.8777 42.2901 88.8455 42.2813 88.8097 42.2734C88.9682 42.3283 89.1061 42.3656 89.2081 42.4141ZM9.80188 41.6875C9.74756 41.7263 9.70166 41.7663 9.68469 41.7812C9.73251 41.737 9.80275 41.698 9.87219 41.6406C9.84416 41.6586 9.82048 41.6744 9.80188 41.6875ZM8.72375 40.7969C8.51687 40.8944 8.36478 40.9849 8.30188 41.0312C8.23129 41.0833 8.19772 41.1366 8.18469 41.1484C8.25827 41.0815 8.48111 40.9542 8.77063 40.7734H8.72375V40.7969ZM95.8644 40.4453C95.8724 40.4681 95.8798 40.491 95.8878 40.5156C95.8808 40.48 95.8936 40.4459 95.8878 40.4219L95.8644 40.4453ZM95.63 37.3047V37.4219L95.7003 37.2812L95.63 37.3047ZM93.8253 38.875L93.8956 38.8281C93.9356 38.8471 93.9805 38.8587 94.0128 38.875C94.0083 38.8727 93.9681 38.848 93.9191 38.8281C93.8972 38.8194 93.8632 38.8177 93.8253 38.8047V38.875ZM1.83313 38.7812C1.95076 38.9473 2.07164 39.0742 2.18469 39.1797V39.1328C2.07013 39.0316 1.95285 38.9213 1.83313 38.7812ZM93.8956 38.8281L93.8253 38.875V38.8047C93.8486 38.8153 93.8744 38.818 93.8956 38.8281ZM99.0519 38.5234C99.2992 38.2437 99.5052 37.9183 99.6144 37.5625C99.498 37.9419 99.2683 38.2436 99.0519 38.5234ZM5.41907 38.125C5.35856 38.1423 5.30433 38.1593 5.255 38.1719C5.28568 38.1613 5.34318 38.1712 5.39563 38.1484L5.41907 38.125ZM3.54407 37.6797C3.57769 37.6943 3.61803 37.6723 3.63782 37.6797L3.66125 37.7031C3.59392 37.6811 3.52771 37.638 3.45032 37.6094C3.49373 37.6312 3.52113 37.6697 3.54407 37.6797ZM95.63 37.4219V37.3047L95.7003 37.2812L95.63 37.4219ZM6.09875 36.6953C5.92743 36.8291 5.81781 36.9813 5.70032 37.0469H5.72375C5.81152 36.9967 5.96109 36.8828 6.14563 36.7188L6.09875 36.6953ZM95.3956 36.3438L95.4894 36.4375L95.3488 36.2734C95.3696 36.3016 95.3826 36.3276 95.3956 36.3438ZM99.0988 33.8359H99.1222L99.0284 33.7188C99.0534 33.7462 99.0668 33.7998 99.0988 33.8359ZM99.9659 34.3516C99.949 34.2433 99.9669 34.1368 99.9425 34.0469L99.7316 33.5312C99.8161 33.6936 99.88 33.9866 99.9659 34.3516ZM5.255 32.8516C5.36816 32.8908 5.51668 33.0117 5.72375 33.1094C5.61691 33.0403 5.54248 32.9717 5.48938 32.9453L5.255 32.8516ZM41.9816 32.4062C42.1411 32.3504 42.269 32.323 42.3331 32.2891C42.4294 32.2374 42.5015 32.1853 42.5206 32.1719C42.4245 32.2393 42.21 32.2809 41.9816 32.4062ZM65.9113 30.5312C66.0359 30.5479 66.2121 30.5939 66.4269 30.5781L66.4738 30.5547C66.2517 30.5376 66.0598 30.5624 65.9113 30.5312ZM38.2784 30.25H38.3253V30.2266C38.3027 30.2288 38.2794 30.2245 38.255 30.2266L38.2784 30.25ZM3.77844 28.6094L3.82532 28.7266C3.80162 28.6827 3.8064 28.6172 3.77844 28.5625V28.6094ZM100.552 28.4922C100.571 28.4628 100.622 28.4019 100.669 28.3047C100.677 28.289 100.682 28.2574 100.693 28.2344C100.63 28.3239 100.602 28.4256 100.552 28.4922ZM96.1691 27.7188C96.4526 27.7692 96.6924 27.7834 96.8722 27.7656L96.8488 27.7422C96.6437 27.7635 96.4198 27.7435 96.1691 27.7188ZM11.255 25.6094C11.2672 25.6218 11.3006 25.6336 11.3253 25.6562C11.2951 25.6232 11.2559 25.5905 11.2316 25.5625C11.2322 25.5632 11.2372 25.5912 11.255 25.6094ZM7.05969 25.2812L7.08313 25.5625C7.06531 25.4625 7.0739 25.3241 7.05969 25.1641C7.05916 25.2117 7.05858 25.2509 7.05969 25.2812ZM12.9659 25.1406C12.9759 25.0634 13.0111 25.0026 13.0128 24.9766C13.0179 24.8954 13.0143 24.8239 13.0128 24.7656L12.9659 24.7188C12.9807 24.8317 12.9638 24.9717 12.9659 25.1406ZM13.7394 24.3906C13.7476 24.5085 13.7058 24.6905 13.6925 24.9062C13.6994 24.859 13.7361 24.8226 13.7394 24.7891C13.7576 24.6043 13.7439 24.4563 13.7394 24.3906ZM28.9503 24.4375C29.0072 24.5508 29.0934 24.661 29.1847 24.7891C29.1067 24.6532 29.0274 24.5373 28.9738 24.4141L28.9503 24.4375ZM30.4034 24.0859C30.4009 24.1076 30.3821 24.1473 30.38 24.2031C30.3786 24.2436 30.3995 24.3109 30.4034 24.3906C30.4122 24.2735 30.3929 24.1691 30.4034 24.0859ZM29.6534 24.0859L29.6769 24.1328C29.676 24.0311 29.6498 23.9442 29.6534 23.875C29.6524 23.9012 29.6431 23.9804 29.6534 24.0859ZM82.9738 23.6172C82.8502 23.6744 82.705 23.6702 82.5753 23.7109L82.5519 23.7344C82.6965 23.6934 82.845 23.6768 82.9738 23.6172ZM27.5441 23.2891C27.5208 23.3325 27.5016 23.3812 27.4738 23.4297C27.5212 23.3668 27.569 23.3239 27.5909 23.2891C27.6046 23.2673 27.6046 23.2357 27.6144 23.2188L27.5441 23.2891ZM18.005 22.5859C18.0141 22.6035 18.0343 22.6249 18.0519 22.6562C18.0073 22.5491 17.9407 22.4554 17.9113 22.375C17.917 22.3908 17.9493 22.4778 18.005 22.5859ZM31.6222 22.4688C31.6173 22.4258 31.5847 22.3333 31.5519 22.2109C31.5466 22.1916 31.537 22.1687 31.5284 22.1406C31.5537 22.2823 31.6151 22.3904 31.6222 22.4688ZM12.1456 22.3984C12.0568 22.3362 11.9331 22.2219 11.7472 22.1406C11.7285 22.1325 11.702 22.1273 11.6769 22.1172C11.8698 22.2264 12.0345 22.3119 12.1456 22.3984ZM73.0363 21.8359C73.0241 21.8246 72.9908 21.7725 72.9191 21.7188C72.8947 21.7006 72.8494 21.6797 72.8019 21.6484C72.8863 21.719 72.9708 21.7751 73.0363 21.8359ZM94.9269 21.4141H94.9503C94.8393 21.2777 94.7089 21.1446 94.5519 21.0156C94.6896 21.1475 94.8174 21.2715 94.9269 21.4141ZM76.7159 20.7344C76.7109 20.7289 76.6806 20.6902 76.6222 20.6406C76.6059 20.6268 76.579 20.6147 76.5519 20.5938C76.6028 20.6462 76.6684 20.6829 76.7159 20.7344ZM91.2941 20.7812C91.1773 20.86 91.0972 20.9321 91.0831 20.9453C91.1574 20.8756 91.2916 20.807 91.4113 20.7109C91.3629 20.7393 91.3222 20.7623 91.2941 20.7812ZM74.6769 20.6406C74.638 20.7651 74.6166 20.864 74.6066 20.9219C74.6256 20.8015 74.7191 20.6496 74.7706 20.4531C74.7382 20.5331 74.6913 20.5949 74.6769 20.6406ZM67.5753 20.1484C67.692 20.2007 67.7934 20.2231 67.8566 20.2422C67.7619 20.2162 67.6538 20.1703 67.5284 20.125L67.5753 20.1484ZM81.3566 20.1719H81.4034C81.3841 20.1425 81.348 20.1055 81.3097 20.0547L81.3566 20.1719ZM81.4034 20.1719H81.3566L81.3097 20.0547C81.3381 20.0963 81.3763 20.1307 81.4034 20.1719ZM78.7316 20.1719C78.6677 20.0967 78.5973 19.9738 78.4738 19.8672C78.452 19.8484 78.4105 19.8447 78.38 19.8203C78.5102 19.9545 78.6424 20.0588 78.7316 20.1719ZM81.1456 19.6797L81.0988 19.7734C81.117 19.735 81.1506 19.6944 81.1691 19.6562L81.1456 19.6797ZM81.38 19.1406C81.1516 19.2678 80.981 19.4054 80.8644 19.5156V19.5391C80.9978 19.4054 81.1788 19.2823 81.38 19.1406ZM84.005 19.2344L83.9816 19.1875C83.9724 19.1704 83.9537 19.1482 83.9347 19.1172C83.955 19.1587 83.9894 19.2 84.005 19.2344ZM67.5988 19.5156L67.7394 19.5391C67.6862 19.5315 67.6225 19.5045 67.5519 19.4922C67.5754 19.5 67.5898 19.5131 67.5988 19.5156ZM67.5753 17.5234C67.5544 17.5323 67.5234 17.5502 67.4816 17.5703C67.5745 17.5394 67.6612 17.4997 67.7394 17.4766C67.7346 17.478 67.6646 17.486 67.5753 17.5234ZM34.5519 16.4688L34.4347 16.5859C34.4898 16.5335 34.5445 16.491 34.5988 16.4453L34.5519 16.4688ZM39.2863 13.6797C39.3124 13.7187 39.3069 13.7772 39.3331 13.8203V13.75L39.2863 13.6562V13.6797ZM35.3488 12.8594C35.3842 12.9009 35.4227 12.933 35.4425 12.9531C35.3808 12.894 35.3251 12.8165 35.255 12.7422C35.2932 12.794 35.3262 12.8327 35.3488 12.8594ZM33.5675 11.7344L33.6847 12.2734C33.6185 12.0788 33.6181 11.8273 33.5909 11.5469C33.5894 11.6123 33.5641 11.6751 33.5675 11.7344ZM64.8097 12.0156C64.7819 12.0595 64.7444 12.1043 64.7159 12.1562C64.7257 12.1786 64.7287 12.2041 64.7394 12.2266C64.7892 12.1496 64.8318 12.0791 64.88 12.0156H64.8097ZM69.38 11.2656C69.3571 11.2401 69.3562 11.1957 69.3331 11.1719L68.6066 10.6328C68.8341 10.7453 69.0873 10.9884 69.38 11.2656ZM38.4191 10.9141C38.4523 10.924 38.5164 10.9226 38.5831 10.9375C38.4732 10.9008 38.3713 10.8954 38.3019 10.8672C38.3194 10.8742 38.3588 10.8957 38.4191 10.9141ZM36.4972 9.67188C36.5358 9.77328 36.5684 9.86242 36.5909 9.90625L36.6613 10L36.4972 9.67188ZM41.2081 9.48438L41.255 9.46094C41.2625 9.42695 41.2958 9.40046 41.3019 9.36719H41.255C41.2482 9.40907 41.2166 9.44258 41.2081 9.48438ZM37.0128 9.0625L37.0831 9.20312L36.9191 8.82812C36.9508 8.93397 36.9914 9.0123 37.0128 9.0625ZM66.6144 8.73438C66.6159 8.73049 66.6555 8.64288 66.6847 8.5C66.6926 8.46111 66.675 8.39506 66.6847 8.3125C66.6347 8.50122 66.6428 8.66015 66.6144 8.73438ZM40.0831 8.26562C40.1233 8.29371 40.2056 8.34764 40.3175 8.40625C40.2027 8.32408 40.0873 8.25737 40.0128 8.19531L40.0831 8.26562ZM37.8097 7.9375L37.9034 8.19531C37.8654 8.1202 37.8379 8.00401 37.7863 7.89062L37.8097 7.9375ZM65.7238 7.86719C65.7338 7.7119 65.745 7.3712 65.63 6.95312C65.7138 7.3753 65.7337 7.71348 65.7238 7.86719ZM41.8409 7.07031C41.8111 6.99761 41.7885 6.94132 41.7706 6.90625L41.7003 6.78906L41.8409 7.07031ZM38.5831 6.22656L38.6534 6.78906L38.5831 6.17969V6.22656ZM55.7863 5.64062C55.8188 5.59903 55.8851 5.59658 55.9034 5.57031C56.0051 5.42342 56.06 5.30577 56.0675 5.28906C56.031 5.37024 55.8877 5.46996 55.7863 5.64062ZM44.4425 5.38281C44.4546 5.4332 44.4773 5.48581 44.4894 5.54688C44.4863 5.51999 44.4921 5.49581 44.4894 5.47656C44.4844 5.44244 44.471 5.40943 44.4659 5.38281H44.4425ZM40.2706 5.21875C40.3846 5.25673 40.4818 5.28402 40.5519 5.3125C40.5289 5.30328 40.4848 5.26376 40.4113 5.24219C40.3793 5.23288 40.3268 5.23135 40.2706 5.21875ZM53.2316 5.19531C53.2516 5.15122 53.2976 5.13586 53.3019 5.125V5.07812C53.2933 5.11217 53.2457 5.14483 53.2316 5.19531ZM54.8722 4.75L54.9425 4.77344L55.0363 4.75H54.8722ZM54.9425 4.77344L54.8722 4.75H55.0363L54.9425 4.77344ZM51.4034 4.23438L51.6613 4.1875V4.04688L51.4034 4.23438ZM51.6613 4.1875L51.4034 4.23438L51.6613 4.04688V4.1875ZM61.0831 4.04688C61.3423 3.98484 61.723 3.9845 62.1613 4.02344C61.7024 3.95623 61.3252 3.98891 61.0831 4.04688ZM43.7863 3.57812H43.8097L43.7863 3.53125C43.749 3.50523 43.6736 3.46686 43.5753 3.41406C43.6569 3.47336 43.7263 3.52934 43.7863 3.57812ZM55.7863 3.0625C55.7727 3.02078 55.766 2.93165 55.7159 2.82812C55.7134 2.82297 55.7034 2.80306 55.6925 2.78125C55.723 2.87994 55.7617 2.97137 55.7863 3.0625ZM49.9972 2.26562C50.0261 2.32051 50.0958 2.34334 50.1144 2.38281C50.0963 2.34989 50.0767 2.29159 50.0441 2.24219H50.0206L49.9972 2.26562Z"
        fill="#2465FC" />
    <path
        d="M46.5165 34.4414C47.9517 33.5919 49.3038 34.192 49.8446 34.5586V34.582C50.3742 34.3176 51.1405 34.0428 52.0712 34.2773C52.9057 34.4904 53.4187 35.0042 53.7587 35.4258C54.4558 35.352 55.4971 35.4401 56.3368 36.3633C56.3845 36.3754 56.4521 36.3484 56.5009 36.3633C57.2505 36.5942 57.9397 37.1269 58.3524 37.9102C58.7129 38.6003 58.7255 39.2601 58.704 39.6211C58.6969 39.7389 58.6499 39.8446 58.6337 39.9492C59.1034 40.4322 59.6578 41.2223 59.5712 42.3867C59.568 42.4278 59.5289 42.4639 59.5243 42.5039C59.7775 42.9991 59.8566 43.6195 59.7587 44.3086C59.829 44.7092 59.8446 45.1617 59.7118 45.6445C59.6523 45.8575 59.5192 46.0345 59.4305 46.207V46.2539C59.4814 46.8231 59.3273 47.3416 59.1024 47.8242C59.0642 48.0089 59.0666 48.2138 58.9852 48.4102C58.7211 49.046 58.3065 49.4445 57.9071 49.7227C57.8771 49.7694 57.8213 49.7962 57.7899 49.8398C57.8116 50.1887 57.8023 50.6395 57.6259 51.1289C57.2108 52.2699 56.2427 52.9355 55.2821 53.1211C55.184 53.1397 55.0716 53.0883 54.9774 53.0977C54.574 53.6297 54.0327 54.1524 53.1727 54.3164C53.0496 54.3394 52.9134 54.285 52.7977 54.293C52.6469 54.4264 52.5215 54.6003 52.329 54.7148C51.5513 55.1769 50.7961 55.142 50.2196 55.043C50.0334 55.2326 49.8477 55.469 49.5634 55.6289C49.4261 55.706 49.2565 55.6929 49.118 55.7461C48.7008 56.0694 48.1448 56.3951 47.3837 56.4258C47.0945 56.437 46.827 56.3855 46.5868 56.332C46.0667 56.5345 45.4226 56.6978 44.6884 56.4961C43.8264 56.259 43.3171 55.7119 43.0712 55.3945C42.3694 55.4272 41.5889 55.2472 40.9384 54.6914C40.8645 54.6281 40.8144 54.5458 40.7509 54.4805C40.694 54.4551 40.6207 54.4634 40.5634 54.4336C40.5306 54.4165 40.5012 54.3812 40.4696 54.3633C40.038 54.3578 39.3807 54.3039 38.7352 53.8711C38.1376 53.4675 37.6931 52.8581 37.493 52.1602C37.3784 51.7542 37.4479 51.3803 37.4696 51.082C36.9853 50.6603 36.393 49.9958 36.2977 48.9492C36.2081 47.9495 36.5461 47.0769 37.0009 46.4414C37.1576 46.224 37.3356 46.0409 37.5165 45.8789C37.5448 45.7141 37.6191 45.5578 37.6805 45.3867C37.6863 45.2932 37.712 45.2032 37.7274 45.1055C37.688 45.0172 37.5969 44.9465 37.5634 44.8477C37.3156 44.1129 37.2385 42.8577 38.1493 41.8008L38.6649 41.3789C38.8012 40.8849 39.0427 40.3647 39.5321 39.9258C39.5617 39.8993 39.5961 39.8802 39.6259 39.8555L40.2587 38.8711C40.4426 38.6767 40.6436 38.5271 40.8446 38.4023C41.0823 38.0416 41.4227 37.6831 41.8993 37.418C42.0404 37.3403 42.208 37.3512 42.3446 37.3008C42.4973 36.8984 42.7482 36.4004 43.2587 35.9883C44.0365 35.3647 44.9054 35.2758 45.4852 35.332L45.5555 35.3555C45.7707 35.0454 46.0734 34.7045 46.5165 34.4414ZM46.868 54.3867C46.6828 54.5411 46.3116 54.7094 45.8602 54.8789C46.3217 54.7362 46.6698 54.552 46.868 54.3867ZM45.6024 53.9648L45.6493 53.9414L45.6727 53.8945C45.6551 53.9178 45.6223 53.9393 45.6024 53.9648ZM40.9384 52.4883C40.9669 52.6087 41.0772 52.9845 41.3602 53.4023C41.1331 53.0148 40.9852 52.6857 40.9384 52.4883ZM51.954 52.207L52.0009 52.1602V52.1133H51.9774C51.9711 52.1444 51.9617 52.1739 51.954 52.207ZM52.0009 52.0664L51.9774 52.1133H52.0009C52.0096 52.0886 52.0172 52.0656 52.0243 52.043L52.0009 52.0664ZM49.6805 50.6133C49.5152 50.4887 49.3039 50.2822 48.9774 50.168C48.9488 50.158 48.9132 50.1537 48.8837 50.1445C49.2268 50.2897 49.486 50.4546 49.6805 50.6133ZM50.4305 50.168C50.4352 50.3248 50.4466 50.4366 50.454 50.4727C50.4331 50.3752 50.4719 50.1988 50.454 49.9805C50.4497 50.0623 50.4293 50.1253 50.4305 50.168ZM48.5555 41.4492C48.5068 41.4622 48.4393 41.4388 48.3915 41.4492C48.3054 41.5251 48.2584 41.66 48.1571 41.7305C47.702 42.046 47.2343 42.1678 46.8212 42.2227C46.7869 42.2658 46.7879 42.3441 46.7509 42.3867C46.7292 42.4115 46.6791 42.4099 46.6571 42.4336C46.5598 42.6697 46.4752 42.9143 46.3055 43.1367C46.2689 43.3326 46.299 43.5584 46.2118 43.7695C45.9045 44.5107 45.4021 44.9239 44.9227 45.1992C44.9775 46.3538 44.4256 47.2837 43.704 47.8242C43.681 47.8414 43.6332 47.8315 43.6102 47.8477C43.6833 47.965 43.8067 48.0615 43.868 48.1992C43.9387 48.3581 43.9208 48.5367 43.9618 48.6914C44.0907 48.6999 44.2241 48.7104 44.3602 48.7383C44.5244 48.734 44.6955 48.6895 44.8759 48.7148C45.2963 48.7749 45.6484 48.9402 45.954 49.1133C46.2301 49.0804 46.485 49.079 46.7274 49.1133C46.8911 48.9912 47.0311 48.8122 47.243 48.7148C47.2862 48.6951 47.3408 48.6853 47.3837 48.668C47.4632 48.6001 47.5266 48.4972 47.618 48.4336L48.4618 48.0352C48.9329 47.8882 49.3739 47.9184 49.7509 47.9648C50.2373 47.6947 50.7045 47.6019 51.1337 47.5898C51.1812 47.5356 51.2475 47.4991 51.2977 47.4492C51.4011 47.1471 51.5609 46.8238 51.8134 46.5117C51.8736 46.4374 51.9377 46.3665 52.0009 46.3008C52.1933 45.7667 52.4925 45.2853 52.9149 44.9414L52.9618 44.8945C52.5045 44.2755 52.1406 43.2736 52.493 42.1289C52.5003 42.1054 52.5088 42.0815 52.5165 42.0586L52.493 42.0117C52.2854 41.8782 52.1297 41.7208 51.9774 41.5664C51.618 41.5372 51.2614 41.4413 50.8759 41.2383C50.3094 41.3577 49.7588 41.3018 49.2352 41.1211C49.029 41.2352 48.8196 41.3778 48.5555 41.4492ZM41.7118 48.9727C41.6336 48.9987 41.5826 49.0741 41.5243 49.0898C41.5677 49.0781 41.6253 49.0289 41.7118 48.9961V48.9727ZM41.7118 48.9727V48.9961C41.799 48.963 41.9005 48.919 42.0165 48.8555H41.9696C41.8723 48.8971 41.7932 48.9455 41.7118 48.9727ZM40.0712 48.4336H40.118C40.1384 48.423 40.1651 48.4218 40.1884 48.4102C40.1262 48.4184 40.0849 48.429 40.0712 48.4336ZM37.6571 47.3789L38.0087 48.1992L37.6571 47.2383C37.666 47.2844 37.6463 47.3352 37.6571 47.3789ZM57.2509 47.8945C57.274 47.8891 57.3515 47.868 57.4618 47.8242C57.5077 47.8059 57.5579 47.7315 57.6493 47.6836C57.4516 47.7533 57.328 47.8773 57.2509 47.8945ZM49.9384 38.5195C49.9291 38.6082 49.9019 38.736 49.868 38.8945C49.9138 38.7282 49.9297 38.5961 49.9384 38.5195ZM44.8993 37.8164C44.8868 37.8772 44.8822 37.9335 44.8759 37.9805V38.0742C44.8753 37.9897 44.897 37.9043 44.8993 37.8164ZM53.993 35.7305H54.0165C53.9963 35.7039 53.9721 35.6669 53.9462 35.6367L53.8993 35.6133C53.9297 35.6567 53.9673 35.6902 53.993 35.7305Z"
        fill="#2465FC" />
</svg>