<svg width="228" height="201" viewBox="0 0 228 201" fill="none" xmlns="http://www.w3.org/2000/svg">
<path d="M15.53 153.174C36.3515 149.665 89.5882 95.9721 96.7204 70.6002C109.137 26.4302 81.9585 -2.28662 48.7442 29.0824C15.535 60.4466 7.82835 127.79 52.9792 165.168C105.74 208.847 183.908 180.853 212.509 92.2817" stroke="#BE5177" stroke-width="30" stroke-linecap="round"/>
<path d="M71 96.0322L73.8261 149.958" stroke="#FFAEB6" stroke-width="20" stroke-linecap="square"/>
<path d="M133.403 114.931C128.264 89.9386 103.161 90.5006 99.1608 114.334C95.9002 133.758 133.001 137.998 132.74 152.942C132.315 177.308 105.244 176.55 98.3782 159.167" stroke="#FFAEB6" stroke-width="20" stroke-linecap="square"/>
<path d="M197.065 146.537C197.065 146.537 191.013 139.032 189.565 120.537M159.48 149.537C159.757 140.921 159.48 132.532 159.48 120.537M159.48 120.537C159.48 101.032 162.565 77.5368 174.565 78.0369C186.565 78.537 188 100.532 189.565 120.537M159.48 120.537C175.329 120.537 173.716 120.537 189.565 120.537" stroke="#FFAEB6" stroke-width="20" stroke-linecap="square"/>
</svg>
