<svg width="11" height="12" viewBox="0 0 11 12" fill="none" xmlns="http://www.w3.org/2000/svg">
    <path
        d="M4.93988 1.58076C5.34387 0.63284 6.74474 0.863847 6.91039 1.9057C7.01639 2.57239 7.70306 2.99284 8.31767 2.76738C9.27813 2.41504 10.1493 3.57521 9.54307 4.39929C9.15515 4.92663 9.36741 5.70332 9.97808 5.99105C10.9324 6.44069 10.7635 7.85041 9.74056 7.97399C9.08596 8.05307 8.69946 8.73103 8.94848 9.3634C9.33763 10.3516 8.22766 11.1851 7.38717 10.5358C6.84934 10.1203 6.0905 10.3024 5.83199 10.9089C5.42801 11.8569 4.02713 11.6259 3.86148 10.584C3.75549 9.91732 3.06881 9.49687 2.45421 9.72233C1.49375 10.0747 0.622574 8.9145 1.2288 8.09041C1.61672 7.56308 1.40446 6.78638 0.793794 6.49866C-0.160525 6.04902 0.00833062 4.6393 1.03131 4.51571C1.68592 4.43663 2.07241 3.75868 1.8234 3.12631C1.43425 2.13808 2.54422 1.30461 3.3847 1.95392C3.92253 2.36942 4.68138 2.18734 4.93988 1.58076Z"
        fill="#0707AD" />
</svg>